<?xml version="1.0" encoding="UTF-8"?>
<svg id="Layer_2" data-name="Layer 2" xmlns="http://www.w3.org/2000/svg" viewBox="0 0 627.75 720.6">
  <defs>
    <style>
      .cls-1 {
        fill: #f18528;
      }

      .cls-2 {
        fill: #fff;
      }

      .cls-3 {
        fill: #59595c;
      }

      .cls-4 {
        fill: #050708;
      }
    </style>
  </defs>
  <g id="Layer_1-2" data-name="Layer 1">
    <g id="Vectors">
      <g id="Arms">
        <g id="Left_Arm" data-name="Left Arm">
          <g>
            <path d="m198.9,670.65c4.01-5.75,5.98-11.86,5.52-18.5l1.13-.1c.03.37.11.74.25,1.1,3.1,7.5,3,14.7-1.1,21.8-1.08,1.94-1.09,3.51-.11,5.19l-2.5.6c-.68-1.14-1.54-2.33-2.59-3.59-1.9-2.4-2.3-4.1-.6-6.5Z"/>
            <path d="m616.7,322.25c.9-6.5-1.9-15.4-5.6-18.9,1.8,6.2,3.6,12,5.6,18.9Zm-6.3-35.3c-2.2-8.1-13.8-12.7-23.3-8.5,4.6.8,8.5,2.3,12.5,2.2,5.2-.1,7.2,4,10.6,6.4l.2-.1Zm-45.2,14.2c-1.1-2.3-2.9-3.7-5.9-3.6,1.5,4.2,4.3,7.4,7.2,9.7,2.8,2.2,6.9,3.9,11.1,2.1-.2-.2-.3-.4-.5-.5-5.2-.6-9.4-2.8-11.9-7.7Zm6.3-27.6c-3.4-1.6-6.8-3.5-10.8-3.5-2.2,0-4,.5-5.1,2.5-5.2,9.1-12.6,15.9-21,21.9-3.1,2.2-5.8,5.4-5.1,10.6,3-3.3,5.5-6.4,8.4-9,6-5.4,12.3-10.2,16.3-17.7,4.1-7.6,12.3-6.7,16.3,1.1.4.8.9,1.4,2.9,1.1-1.7-2.5,0-6.1-1.9-7Zm-493.5,78.7c-.5,1.5-1.4,3.1.6,4.6,1.3-1,1.6-2.4,2-3.8,2.7-8.9,6-17.6,8-26.7,2.1-9.6,6.22-16.39,13.98-19.26,2.58-.96,5.57-1.49,9.02-1.54,1.1,0,2.3-.1,3.4-.5,4.4-1.6,7.9.2,11.5,2.6,5.1,3.4,10.5,6.3,15.7,9.5l.3-.3c-3.7-6.1-9.2-9.9-15.4-12.9-1.9-.9-4.2-1.5-3.7-4.5,2.6-16.1,6.7-31.2,23.1-39.5,6.6-3.4,13.2-7,19-11.8h-.1c-7.1,1.5-13.3,5-19.7,8.1-9.9,4.8-17.4,11.9-20.8,22.8-1.8,5.5-3.8,11-4.8,16.7-.5,3.3-1.9,5.1-5.5,5.8-4.34.88-8.53,2.2-12.67,3.76-1.48.55-2.95,1.13-4.43,1.74-4.1,1.6-6.8,4.2-8.1,8.6-3.6,12.2-7.6,24.4-11.4,36.6Zm-21.5-32.9c-.8-5.6-3.9-8.3-7.7-9.1-7.5-1.5-15.4-3.5-21.9,3.6,10.5-3.5,20.5-3.5,29.6,5.5Zm20.9,52.1c-.5-12.8-4.3-22.8-13.7-30.2-2-1.6-3.9-3.7-6.6-4.2-1.7-.3-3.7.2-4.3,1.7-.7,1.6,1.3,2,2.4,2.6,8.7,4.7,14,12.2,17.3,21.3,1,2.8,2,5.4,4.9,8.8ZM467.9,85.25c-3.9-1.6-7.8-1.5-11.8-1.3-6.1.4-10.8-2.5-15.3-5.9-2.4-1.9-4.9-3.8-7.3-5.7.5,4,5.6,6.3,4.4,9.4-1.3,3.3-6.2,3.9-9.5,5.6-2.6,1.3-2.4,3-1.5,5.3,1.9-.4,3.3-1.5,5.1-1.9,7.3-1.7,14.5-2.5,21.9-3.1,8.1-.6,8-1.2,8.7,6.4,1.6-1.9,1.4-4.4,1.9-6.3,7.7-.2,8.3,5.3,8.4,11.1,2.9-7.7,1.5-10.8-5-13.6Zm-26.9,496.1c.3-3.8-1.1-4.6-5.1-4.6-8.2-.1-12.8,4.8-16.8,10.3-2.7,3.7-7.5,6.5-6.8,12.1.3,2.9-.8,4.8-2.6,7.1-9.6,12-8.6,20.9,2.5,26.2,12.8,6.1,26.3,10.8,39.5,16.3,12.5,5.2,26.2,3.1,39.4,3.1,6.5,0,12.2-2.1,17.6-5.6,1.3-.8,2.8-1.4,2.4-3.3s-2-1.8-3.5-2.1c-6.3-1.4-13.3-.5-18.8-5,.58-.88,1.83-1.47,1.52-2.7h.08l-.1-.1s.02.07.02.1c-3.79-.18-8.83,1.17-10.62-2.8-1.4-3.1-3.6-4.6-5.8-5.8-3.3-1.9-3.9-6.6-8.3-6.8-1.14.03-1.98.04-2.58-.01-.47-.03-.79-.1-.98-.24.53.2,1.59.19,3.36.15-.29-1.72-1.22-2.62-2.79-2.69.2-1.56.44-2.91-2.11-3.11-1.1-.1-4.9-.2-3.1-3.7-1.5.3-3.1.8-4.7.8-1.45,0-2.94.32-4.34.12-.57-.07-1.13-.23-1.66-.53,1.82.9,3.92.31,5.8.31,1.5,0,3.1-.5,4.7-.8,0-.7,0-1.5.1-2.2.11-.83-.07-1.35-.41-1.7.46.34.74.86.61,1.8,2.6-.4,4.4-.9,1.2-3.3-2.5-1.8-1.7-3.1.3-5.1,2-2.1-4.6-3.4-1.5-5.7,4.1-3.2-.2-6.7,1-9.8-4.15,2.99-8.3,3.63-12.44,1.65,4.08,1.86,8.16,1.19,12.24-1.75.2-3.2,2.4-6.1,2.1-9.5-.2-1.6-.5-3.3-2.3-3.2-5.1.3-9,3.7-13.3,6-2.7,1.4-1.1,4.5-1.5,6.8.05.03.09.07.14.1-.78,0-1.65-.02-2.24-.8-.08.01-.17.01-.26,0h.06Zm-2.3-358.1c2.6,0-3.7-6,2.8-3.7.9.3.3-1.5-.3-2.2-3.2-3.7-6.5-7.5-9.7-11.2,1.6-1,2.4-.1,3.4.5.5.4,1.7.4,2.1-.5.3-.7-.3-1.2-.8-1.6-6.5-5.3-13.1-10.4-20.7-14-2.4-1.2-2.7.9-3.9,1.7-1.7,1.2-1.2,2.5-.2,3.7,4.5,5.3,7.2,12.5,15.4,13.9,2.6.5,2.6,1.1,1.2,3.2-.6.9.2,1.1.5,1.5,3,3.5,6.1,6.9,9.1,10.4.4-.5.8-1,1.1-1.7Zm-35.2-30.8c2.8-5.7,10.5-5.5,12.4-12.9-7,2-13.4,4-20.3,6,2.6,2.8,4.7-.5,6.9.4,4.1,1.6-.3,3.8,1,6.5Zm13.8-9.7c-1.7,2.7-3.2,3.9,1.5,5.7,11.9,4.5,20.6,13.3,29.1,23.1-2.9.8-4.9-1.4-7.3,0,3.2,4.6,6.5,9.2,10,14.1-6.1-.5-6-.4-4.4,5.4,1.8,6.7,6.5,11.6,10.2,17.1,6.8,10.1,9.7,21.2,9.8,33.2,0,7.7,0,8.3,7.5,9.3,16.2,2.2,27.5,11.5,36.5,24.2,3,4.2,6.9,2.9,10.7,3,1.4,0,1.3-1.3,1.3-2.3.1-14.3,7.1-24.3,19.4-30.9,3.3-1.8,4.9-4.7,6.8-7.6,7.5-11.7,9.2-9.7,20.5-7.7,4.5.8,6.8,3.3,7,8.4.3,7.9-.1,15.1-8.2,19-1.8.9-1.4,1.4-.5,2.8,3.5,5.6,5,6.3,11.1,4.3,1.5-.5,2.7-1.2,2.2-3.6-.8-3.6-.5-6.9,2.6-10,1.9-1.9,0-5.5.1-8.4.4-7.2,1.2-7.9,8.5-8.1,17.4-.6,27.6,13.6,29.6,27.5.3,2.1.8,4.8-2.2,6-1.4.6-.8,2-.6,3.1.3,1.6.6,3.3.9,4.9,1.4,8.8-2.5,14.7-10.2,18.4-2.2,1.1-3.6,2.7-4.4,5-3.6,10.8-12.5,16.9-21.2,22.8-4.5,3.1-9.5,5.3-13.5,9.1-2,1.8-4.2,2.4-6.8,2.3-9.3-.4-18.6-.3-27.9-1-7.8-.6-14.9,1.6-22.1,4-3.9,1.4-7.9,1.7-11.5-.2-9.4-5-20-5.2-30-7.6-12.3-3-24.9-5-37.3-7.7-1.5-.3-3-.3-4.4-.6-8.3-1.8-8.8-1.6-6.6,6,1.4,4.9.1,9.2-.4,13.6-.6,5.4,2.6,13.7,7.3,16.2,9.9,5.3,19.4,11.1,27.3,19.3,13.4,13.9,23.4,30.1,27.2,48.9,2.1,10.5,6.8,18.4,13.6,25.7,4.4,4.7,4.5,9.9,3.3,15.5-3.6,16.9-11.9,31.2-23.7,43.7-4.4,4.7-8.4,9.7-12.6,14.5-.3.3-.9.7-.9,1.1-.3,14.1-4.6,27.9-1.4,42.1,1.4,6.3,6.7,9.2,10.5,13.3,4.8,5.2,11.6,8.1,16.4,13.2,5.9,2.7,11.7,5.2,18,5.3,2.8.1,7.1,1,7.6,5.6.4,4.5-2.7,7.1-5.8,9.1-12.1,8.1-25.9,8.7-39.8,8.5-13.1-.1-25-3.5-35.2-12.2-5.5-4.7-12.7-6-19.7-7.2-10.5-1.9-15.4-7.5-15.5-18.2,0-7,.9-13.6,5.8-19.3,3.8-4.4,2.7-10.4,4-15.6,1.4-5.5,2.9-11.5,2.8-16.9-.2-8.1,1.5-16.8-4.2-24.3-2.8-3.7-4.9-8.1-6.2-12.8-2.8-9.6-.5-16.3,8.7-22.6-5.8-1.5-11-3.2-16.4-4.2-21.8-3.9-39.1-15.4-53.5-31.6-2.3-2.6-4.2-3.8-8-2.7-4.5,1.2-9.5-.2-14.3,1-2.4.6-3.5,1.5-4.6,3.5-3.3,6.2-5.7,12.8-9.6,18.7-6.9,10.4-16.2,18.6-25.9,26.2-4.1,3.3-7,7.2-9.1,11.9-1.5,3.3-2.7,6.7-4.4,9.9-4.8,9-8.3,18.2-9.3,28.6-1.3,13.6-8.2,24.5-20.3,31.7-5.3,3.1-10.6,6.2-15.5,9.9-4.8,3.7-8.7,7.6-8.4,15.2.2,5.9-3,12.1-5,18-.46,1.29-.86,2.53-.75,3.7l-1.13.1c-.13-1.79-.43-3.63-.92-5.5-.4-1.5,0-3.3.3-4.9,1.1-5.2-1.9-12.4-6.4-15-2.2-1.3-3.8-1.2-4.2,1.8-.1,1.07-.58,2.15-.88,3.22-.97.19-1.95.39-2.92.58.09-2.44-.09-4.96.2-7.3,1.1-8.1-2.1-12.1-10.1-12.1-2.9,0-5.7-.2-8.5,0-5.9.3-8.6,3.2-8.6,9-.1,3,.3,6-1.1,8.8-1.9.9.1,1.2.4,1.8,2.1.9,4.1,1.7,6.6,2.7-.03.04-.07.07-.1.1-2.5-1-4.5-1.9-6.6-2.7l-.3,4.14c-1.53.6-2.07,1.39-.7,2.86,3.5,1.1,6.2,3.5,9.4,5.5-.07.04-.13.08-.2.1-3.3-2-5.9-4.4-9.4-5.5-.4,2.67-.79,5.24-1.19,7.9-2.45.05-1.29,1.12-.41,2.1.7.2,1.4.4,2.2.6.17-.17.26-.33.41-.5,2-.3,3.49,1,4.89,2.1,4.81,4.12,9.91,3.33,15.77,1.69.04.04.08.07.13.11-5.9,1.7-11.2,2.6-16.1-1.6-1.3-1.1-2.8-2.3-4.8-2.1-.14.14-.24.29-.35.43-.02-.01-.03-.02-.05-.03-.7-.2-1.4-.4-2.2-.6-1.7,2.1-3,4.5-3.1,7.4,4.05-.2,8.2,0,12.64-1.74.02.01.04.03.06.04-4.5,1.8-8.7,1.6-12.8,1.8-.69.98-2.43.14-2.96,1.42-.01-.01-.03-.01-.04-.02,0,.02,0,.05,0,.07,0,.01,0,.02,0,.03,0,0,0,.01.02.01.59,2.63-2.52,4.03-2.32,6.59,4.65,1.38,8.9-.65,13.54-1.47.05.02.11.05.16.07-4.6.7-9,2.9-13.7,1.5-1.27.29-2.16.78-1.82,2.31-2.79,1.1-4.08,3.4-5.08,5.89,5.3-.5,10.5-.9,15.8-1.4l.09-1.2h.01l-.1,1.3c-5.3.5-10.5.9-15.8,1.4-1.2.2-2.6-.5-3.6.8,2.5,2.1,5.7,2.9,8.6,3.1,11.1.8,22.1,1,33.2,1.3.79,0,2.05.48,2.29-1.11,0,0,0,0,0,0-.2,1.7-1.5,1.2-2.3,1.2-11.1-.4-22.2-.5-33.2-1.3-2.8-.2-6.1-.9-8.6-3.1-.7,3.6-4,4.7-6.3,6.7-7.6,6.6-7,12.1,2.1,15.8,18.9,7.6,38.1,6.4,57.1.8,8.41-2.51,15.3-7.66,9.49-17.31l2.5-.6c.29.49.66.99,1.11,1.51,8.1,9.4,6.9,16.4-3.6,23-8.9,5.6-18.9,7.6-29.1,9.4-13.2,2.3-25.5-.8-37.6-5.1-4.8-1.7-9.4-4.3-13.2-7.8-4-3.6-3.2-8-1.1-12.2,1.6-3.1,3.8-5.9,6.4-8.3,6.4-5.9,12.2-12.3,17.9-18.9,6.4-7.4,9.1-16,10.5-25.6.9-6.7,1.6-13.3,1.6-20,0-1.2,0-2.7,1.4-2.9,7.1-.9,4.9-6.2,4.5-9.9-1.9-19.3-2.8-38.7-.4-57.8,1.6-13,11.5-21.6,22.5-28.2,5.3-3.1,7.8-8.6,6.6-14.4-1.5-7.3-1-14.8-1.5-22.2-1.6-23.3,8.4-41.9,23.3-58.5,4.8-5.4,9.6-10.9,15.2-15.7,3.8-3.1,3.6-8.6,5-13.1,2.6-7.9,4.1-16.2,6.8-24.1,1.2-3.4-.1-5-2.2-6.6-4.3-3.2-8.6-6.4-13.2-9.2-11-6.8-17.7-17.3-24.5-28.5-3.7,8.4-11.3,12-18.7,16-3.4,1.9-2.2,6.5-1.5,9.2,1.9,7.3-1.4,13.4-4.5,18.9-9.1,16.2-22.4,28.1-39.6,35.3-7.7,3.2-15.9,5.2-24.3,5.5-3.3.1-3.9,1.2-3.6,4.1,1,10.2-1.7,19.2-7,28-4.7,7.7-15.9,7.5-21,.3-3.5-5.1-5.2-10.9-6.4-17.6-4.1,4.4-6.8,9.4-10.9,13.3-5.8,5.5-10.5,6.3-17.7,2-5.5-3.2-7.4-8.9-5-15.8,1.4-4,3.1-7.9,4.6-11.9-1.6-1-2.8-.1-4.3.8-5.8,3.3-11.9,5.6-18.8,6-7.5.4-12-3.2-15.3-9.3-3.5-6.5-2-12.5,2-18.1,6.8-9.5,11.9-19.9,18.1-29.7,2-3.2.5-7.2.8-10.8.5-6.7-.3-12.5-5.1-18.2-5.8-6.7-5-13.6.1-21.1,3.4-5.1,11.4-7.4,18.8-6.1,3.7.6,7.2,1.8,10.7,3.1,8.3,3.2,11.1,9.4,6.8,17.3-2.5,4.8-2.2,7.3,2.9,9.9,3.4,1.7,7.3,4,8,8.7.1.5.8,1.3,1.2,1.3,1.2,0,1.4-1.2,1.9-2,3-4.8,2.8-10.4,3.7-15.7.8-4.9,2.3-9.5,3.9-14.1,3.3-9.6,12.1-10.7,19.9-13.3,2-.7,4.1-1.4,6.6-1.3,3.5.3,5-2.4,5.6-5.6,2.2-11.5,6-22.7,13.2-31.6,7.1-8.7,6.4-19.1,9.8-28.5,1.3-3.7,1.8-7.6,2.7-11.5-1.3-1.1-3.8.7-4.4-1.1-.6-2,1.8-2.9,3-4.1,6.9-6.9,15.2-12.2,23.1-18.6-5.4-1.8-10.8,2.4-16.5-.7,7.1-4.8,14.8-6.9,22.5-8.7,14.3-3.2,28.8-3.8,43.4-2,1.5.2,2.3.3,3.5-1.3,4.4-5.9,9.9-10.8,16.7-13.8,2.4-1.1,3.3-1.7,2-5-3.8-9.2-5.9-19.1-6.8-29.1-1.6-19.2.9-37.8,7-56,.5-1.5,1.1-3,1.6-4.5-2.3-1.1-6,1.1-6.9-1.5-.8-2.3,2.2-4.5,3.7-6.5,5.2-6.6,10.2-13.2,16.4-18.8,1.5-1.4,2.2-2.5,1.6-5.1-1.3-5.4.1-10.8,1.6-16.1.5-1.6,1.8-1.9,2.9-2.4,4.6-2.1,9.8-4.2,14.5-3.8,13.5,1.2,25.8-2.7,38.2-6.9,4.3-1.4,8.9-1.7,13.2-2.5.8-1.8-1.7-2.2-1.2-3.8,9.1-.3,17.9,2,26.5,4.1,14.4,3.5,28.5,8.4,41.8,15.3,17.6,9.1,33.1,20.8,46.6,35.3,2.8,3.1,5.7,6.1,8.7,9,4.5,4.3,9.4,7,16.2,6.6,5.6-.4,11.3,1.2,15.8,5.2,2.7,2.4,4.3,5.3,3.8,9.1-1.1,8-2.7,15.7-10.5,20.2-.7.4-1.3.7-1.4,1.7-.5,5.1-4.6,6.2-8.6,7.4-9.3,2.8-18.9,4.7-28.5,6-2.3.3-3.4,1.4-4.3,3.4-1.9,4.3-3.5,8.7-6.7,12.2-1.4,1.6-.2,2,.5,3.1,2.5,4,6.9,7,7.7,12.1l.1.1c1.55.05,3.08.18,4.56.48,1.44.29,2.84.74,4.19,1.45-2.76.52-5.9-.89-8.85,1.07,2.2,1.5,4.5.1,6.1,1.1,3.43,2.26,2.73-.4,2.89-2.1h.01c2.2,6.3,1.8,7.7-3.7,9.9-5.3,2.2-10.2,4.6-13.3,9.8Zm-17.5-61.8c0,3.5-.1,6.8,0,10.1.1,3.2.7,6.3-.5,10.5,4.4-4.1,6.2-8.7,9.8-12.5.1,3.3.3,6.6.4,9.7,2.2.3,2.5-2.2,4.2-1.9,1.4,1-.3,2.9,1.5,4.1,4-1.9,4.7-5.9,6.3-9.9-8.7-.1-13.7-7.2-21.7-10.1Zm-23.6,19.3c-4.2,8.8-9.7,16.8-13.4,25.8-.6,1.6-.5,2.6,1.1,3.1,5.3,1.8,10.4,4.9,16.1,4.7,13.8-.5,27-4.7,40.5-7.1,2.2-.4,3-1.9,1.8-4.2-1.3-2.7-2.7-7.1-5-7.1-2.1,0-2.2,4.6-1.9,7.5.1.7.2,1.8-1,1.9-1.2.2-1.1-.8-1.2-1.6-.6-3.6-2.8-6.3-4.9-9.6-2.4,3.6-1.5,7.9-3.7,11.4-2.9-4.2-5.5-8.1-8.4-12.5-2.1,3.7-3,7.2-4.1,10.6-.3,1.1.8,2.9-1.6,2.9-1.9,0-1.2-1.6-1.6-2.5-3.2-7.5-6.2-15-9.4-22.4-.6-1.6-1.8-4-3.3-.9Zm-39.7-31.4c1.1-4.5-.9-8.2-3.1-10.4-1.7-1.8-4.1,2.7-6.3,4.3-.7.5-1.2,1.2-1.9,1.5-2.8,1.4-2.6,4.3-1.6,6,2.5,4.5,3.6,9.9,8,14.1,2-5.4,3.6-10.4,4.9-15.5Zm8.1,28.7c-3.9,5.3-5.4,11.6-8.1,17.4-.5,1-1.2,3.5.7,3.9,7,1.6,13.2,5.2,19.7,7.8,2.8,1.1,4.5-.1,4.4-3.5,0-.8-.5-1.6-.8-2.6-2.5-8.2-6.7-15.5-11-22.8-1.6-2.7-2.9-3-4.9-.2Zm2.9-14.7c7.3-7,5.6-15.6,4.7-23.8,0-.7-.8-1.6-1.5-1.8-3.7-1.2-7.4-2.4-11.2-3.1-2.5-.5-3.7.9-2.8,3.6,2.8,8.7,5.9,17.2,10.8,25.1Zm7.8-22.7c-.6,17.7,2.5,34.4,7.9,51,9.7-10.9,14.8-23.5,20.4-35.9,1.7,7.8,1.9,15.4,3.6,22.9.3,1.2.6,2.3,1.7,2.7,1.5.5,2.1-.9,2.7-1.8,1.8-2.7,3.9-5.3,5.1-8.3,1.4-3.4.8-7.2.4-10.8-.3-2.3-3.2-2.5-5-3.4-2.42-1.25-4.84-2.5-7.26-3.74-5.89-3.02-11.82-5.97-17.84-8.66-3.9-1.7-7.5-5.2-11.7-4Zm-26.9,58.7c4.7-.3,8.2-4.5,6.7-8.9-2.1-6.1-4.1-12.3-7.8-17.8-1.9-2.9-2.5-2.5-4.1.2-4.2,7.3-6.3,15.4-8.8,23.3-1.5,4.9-1.1,6.8,4.4,4.3.8-.3,1.9,0,3.2,0,2.1.8,4.2-.8,6.4-1.1Zm-35.1,3.1c-1.4-1.5-3.1-3-4.2-4.7-1.5-2.3-3.4-4.6-2.1-7.8,1.4-3.5.2-6.9-3.4-10-1.1,6.8.4,13,3.9,18.6,1.2,2,2.7,4.3,5.8,3.9Zm-1.4-13.7c-2.4,4.8-1.6,7.8,3,10.7,1.1.7,2.3,1.3,3.5,1.7,4.3,1.3,8.3-1.2,12.5-1,1-5.5,4.8-10.6,3-16.4-1.8-6-3.8-12-7.6-17.7-5.5,7.5-10.5,14.7-14.4,22.7Zm-34.5-17c-.5,25.9,3.6,50.9,15.6,74.1-13.3-39.5-12.4-79.9-8.5-121.7-14.3,19.9-16.6,80.6-6.3,102.3-.7-9.2-2.1-18.3-2.6-27.4s-.1-18.2-.1-27.2c.6,0,1.3-.1,1.9-.1Zm351.6,167.8l.5-.5c-2.9-6.1-8.7-7-14.4-7.6-3.7-.3-7.8-.3-9.9,4,8.7-2.9,16.7-1.6,23.8,4.1Zm-13,31.9c-.3-3.4-1.9-5.9-3.1-8.5-3.2-6.6-15.5-8.2-20.7-2.6l.1.2c1.6-.2,3.3-.4,4.9-.7,6.6-1.3,10.4.4,14.2,6,1.2,1.9,2,4.2,4.6,5.6Zm-24.9,8.2c-11.1-.6-17.9,3.5-20,12.4,5.3-6.8,12.2-9.4,20-12.4Zm-37.5,2.7c.6-2.4-1.5-1.8-2.5-2-2.4-.6-4.9-1-7.3-1.4l-25.5-4.5c0,.2-.1.5-.1.8,4,1.1,7.9,2.2,11.9,3.3,6.7,1.8,13.4,3.5,20.1,5.4,1.8.5,2.9.2,3.4-1.6Zm-6-8.3c-1.4-3.5-3.2-5.8-6.1-6.1-6.7-.7-13.4-1-20.1-1.5-.1.4-.1.7-.2,1.1,8.5,2.1,17.1,4.2,26.4,6.5Zm-31.9,165.1c2.1-.2,1.3-1.8.8-3-1.3-3.7-5.3-5.2-7.6-9.6-.4,3.1.6,4.3,1.4,5.4,2.3,3.2,2.4,4.9-2.2,5.9-3.9.8-6.5,3.8-7.2,8.2,4.2-4.1,9.1-6.2,14.8-6.9Zm-19.4-30.4c1.6-1.5,2-2.7,1.2-5.1-2.9-8.7-6.3-17-11.1-24.9-8.4-13.8-19.3-24.9-33.7-32.2-4.1-2-8.4-4.4-12.9-.5-.6.6-1.8.7-2.6-.8.5-.7,1-1.7,1.8-2.1,4.1-2.1,3.7-5.3,1.9-8.5-3.3-5.8-4.2-11.9-3.8-18.5.5-8.4-1.2-16.7-3-24.9-.3-1.3-1-2.3-.5-3.8,1.7-5.3,2.9-10.8,4.9-16,3.5-9.3,7.4-18.5,11.2-27.7-3.6-1.2-6.9,1.8-11.2-.1,4.5-2.7,8.4-4.8,12.4-7.3,1.9-1.4,4.1-2.8,4.7-5.5,2.6-11.3,1.4-22.5-.7-33.8-4-21.8-17-39.2-27.3-58-.7-1.3-1.5-2.5-3.6-1.7-2.6,1-1.5,2.6-1,4,2.5,7.1,5,14.4,7.7,21.5,3,8.1,6.5,16.3,6.7,24.9.4,17.4-8.6,31.2-25.9,36.6-13.5,4.2-27.3,4.5-41.5,2.2-23.1-3.8-41-15.5-56-32.8-9.6-11.1-16.6-23.9-25.5-35.5-10.3-13.5-20.8-26.8-34.1-37.5-2.2-1.8-4.6-3.7-7.4-1.1-2.9,2.8.5,4.5,1.7,6,15.2,19,26.6,40.3,34.7,63.2,5.9,16.9,10.3,34.5,10.2,52.7,0,2.3.7,3.4,3.3,3.9,3.8.7,7.7,1.2,11.5,1.7,16.5,2.3,33,3.9,49.4,5.7-1.6.9-3.4,1.2-5.4,1.2-18.4-.3-36.8,1.7-55.1-1.4-2.1-.4-2.6.9-2.7,2.5-.4,4.3-.6,8.6-1.1,12.8-.8,5.9-.4,12.2-7.2,15.5-9,4.4-18.3,4.4-27.9,3.4-3.5-.4-6.8-2-11.4-1.2,11.9,9,23.8,16.4,36.6,23.3-2.7,2-4.6,1.2-6.7.7-3.1-.7-6-1.2-7,3.7-2.4,11.1-5.5,22-8.4,33-.5,2-.5,4.5-2.4,5.7-8.9,5.7-15.9,13.6-23,21.3-8.2,8.9-14.4,19-17.4,30.8-.8,3.2-1.7,6.7.7,10.2,5.2,7.6,11.3,14.2,18.5,19.7,2.6,2,4.2.9,5.7-1.8,4.3-8,9.9-15,16.1-21.6,1.1-1.1,2.1-3.1,4.6-1.8-7.2,7.4-12.2,16.2-16.8,25.3-1.6,3.2-1.3,5.5,2.2,7.2,15,7.4,30.7,11.6,47.5,12,2.5.1,4.5-.7,6.2-2.4,6.6-6.3,13.6-12.4,17.4-20.7,3.3-7.1,11-13.8,4.8-23-.1-.1.3-.5.5-.9,11,8.2,22.2,2.1,33.3.5,11.8-1.7,20.6-9.3,29.8-16.1-.3,1.6-.6,3-1.5,3.8-6.9,6-13.6,12.2-22.4,15.9,9.5,11.3,21.3,18.7,34.1,25,18.1,8.8,36.1,8.4,54.4.9,4.3-1.8,5-3.2,2.2-7-2.4-3.2-4.1-7-5.9-10.7-1-2.2-3.4-4.2-2.3-7.7,5.6,6.2,10.9,11.7,16,17.5,1.6,1.9,3.1,1.9,5,.7,9.7-6,19.1-12.5,27.5-20.4Zm4.3-171.6c-3.6-2.5-7.6-2.6-11.4-3.5-5.1-1.1-7.7-4.8-7.7-9.1-.1-13.4-5.6-24.8-11.8-36-.8-1.4-1.3-3.6-4.2-4.1,3.7,7.2,6.7,14.1,8.6,21.3,1.8,7.1,1.3,15.2,4,21.4,3.2,7.4-1.3,8.7-4.9,11.7-.7.6-1.6,1.1-2.4,1.7.1.6.2,1.2.4,1.8,9-7.5,19.1-6.7,29.4-5.2Zm-28-190.9c1.9-1.4,3-2.7,2.3-5.3-1.1,1.8-2.8,2.9-2.3,5.3Zm-11.9,16.8c9.6-1,10.3-1.3,12-6.4-4.2,2.2-8.1,4.3-12,6.4Zm5.3,421.8c1.2-8.4-1-16-4.7-23.5-2.4-5-4.8-8.9-11.5-5.1,9.9,9.3,16.9,19.8,13.4,34.7,2.2-1.9,2.5-4.1,2.8-6.1Zm-27.9-476.5c3.7.3,5.2-2.2,2.9-5.1-5.9-7.3-12.4-14.4-20.2-19.2-7.3-4.5-14.8-8.9-23.1-12-11.6-4.3-23-8.6-34.8-12.2-2.2-.7-3.3-.5-3.1.3.9,4.3-2.8,2.3-3.5,2.1-2.1-.7-4.2-.7-6.3-.8-10.4-.6-20.5.6-30.7,4.7,8.7,5.5,18,4.6,27,4.1.6-1.5-1.3-2.4-.4-4,19.3,7.6,38.1,15.7,54.4,28.6,11.2,8.8,24.1,12.2,37.8,13.5Zm-15.5,25.8c6.9,1.2,13,4.8,19.7,6.4-5.3-6.2-12.2-7.3-19.7-6.4Zm-11-22.5c-3.1-3.5-5.6-5.9-8.3-8.1-10.3-8.4-21.7-15.1-33.1-21.9-10.9-6.5-21.8-9.3-34.1-5.4-1.8.5-3.7.7-5.4-.1-8.3-3.8-17-6.1-26-7.3-7.9-1.1-15.9-1.4-24.1,1,2,2.4,4.2,2.6,6.6,2.7,9.9.5,19.2,2.8,28,7.3,3,1.5,4.5,2.7.3,4.6,1.2,1.5,2.3,1.1,3.4.8,4.1-1,8.2-2.4,12.4-3.1,7.6-1.3,14.9-4,23.1-1,17,6.2,32.4,15.3,47.4,25.2,2.7,1.9,5.1,4.6,9.8,5.3Zm-18.3,106.9c9.5,5.6,18.2,1.2,26.9-1.8-9,1.1-17.7,4.5-26.9,1.8Zm8.3,50.6c-.9-.4-1.7-.4-2.5-.2-4.2,1.1-8.3,2.3-12.5,3.4-2.4.6-2.6,2.2-2.3,4.2,5.7-2.6,11.5-5,17.3-7.4Zm-5.1-145.1c-3.5-2.5-7.1-5-10.6-7.5-.67-.19-1.35-.2-1.48-1h.08l-.1-.1c-9.2-11.2-20.5-16.7-35.2-13.5-.01.03-.02.07-.02.1-2.15,0-4.12.29-6.28-.2-4.4-.9-8.9-1.6-13.3-1.9-4.3-.3-8.6-.1-12.9-.1,27.7,4.3,54.2,12.3,79.8,24.2Zm-5.7,181.7c-2.2-11-6.7-21.1-11.9-30.9-.3-.4-.7-.9-1.1-1-6.7-1.4-13.4-3.2-20.4-2.9,1.7.8,3.4,1.5,5.2,1.7,10.8,1.2,17,7.9,21.1,17.3,2.3,5.3,4.7,10.5,7.1,15.8Zm-41-172.9c-9,2.1-13.1,10.4-20.7,16.3,2-6,4.6-10.2,7.4-14.2.5-.7,1.8-1.2,1.2-2.4-.6-1.3-2.1-1.3-3.1-1-4.4,1.5-9.4.2-13.7,2.7,1.6,1.9,3.4,1.5,5.1.9,1.6-.6,3.8-1.3,4.6-.1,1.1,1.5-.8,3.2-1.7,4.7-7.9,13-13.7,27-19,41.5,10.5-18.4,24.9-33.5,39.9-48.4Zm-57.5,215.7c.3-4.2-2.9-4.3-5.5-5-15.6-4.3-32.2-6.4-44.8-20,.1,2.7.9,3.7,1.7,4.6,11.9,14.3,28.8,18.5,45.5,23,2,.5,2.9-.3,3.1-2.6Zm-13.8-232.4c.7-2,.9-3.3-.1-5.1-2.2-3.8-4.1-7.8-5.4-12-.9-2.9-2.5-3-4.4-.9-3.3,3.6-6.5,7.1-9.8,10.6-1.9,2-.5,2.4,1.1,2.8,1,.3,2.2-.5,3,.4-5.8,16.1-11.5,32.1-10.6,49.6.2.2.5.4.6.6-.3.1-.5.2-.8.3-1.1,16,.8,31.7,7.3,46.4,1.5,3.3,2,4.9-2.7,5,4.5,7.2,10.7,12,16,18.4.6-2.3.6-3.5,0-4.8-4.8-11.6-7.6-23.7-7.6-36.4s.3-25.8,3-38.7c2.6-12.3,6-24.4,10.4-36.2Zm-18,518.5c8.5-7,12.2-16.1,11.7-27,0-1.2-.2-2.8-1.9-1.7-2.9,1.8-6.3,3-8.7,6.2,7.5-.7,7.4-.8,5.2,6.6-1.6,5.5-4.4,10.3-6.6,15.5.1.1.2.3.3.4Zm17.1-64.2c-9,1.5-17.7,1.8-26.4-.7,8.2,7.2,20.1,7.5,26.4.7Zm-45.6-199.9c8.5,8.3,18.8,12.8,26.8,11.3-6.2-3.6-11.4-8.3-16.2-13.5-2-2.2-3.4-2.9-3.5,1.4-6.9-7.3-10-16.3-14.9-24.9-3.2,11,.7,18.8,7.8,25.7Zm-40.3-121.3c17.1-8.6,35-10.6,53.6-9.4-11.2-5.6-29.7-9.1-55.7-6,2.8,3.7,6.9,2.2,11.7,3-12,5.9-23.8,10.2-33.5,19.6h7c-6.2,8.9-11.9,17.3-13.9,27.7-.3,1.5-1.7,3.4.2,4.1,1.7.6,2-1.8,2.7-3,5.8-10.4,12.4-20,21.8-27.6,3.4-2.8,7.6-4.2,11.2-6.8-1.5-.9-3.4.5-5.1-1.6Zm27.4,338.3c3.8,10,7.9,14.4,25.8,9.1-9.6-.9-18.5-2.6-25.8-9.1Zm8.3-295.2c.4-.3.7-.6,1.1-1-.7-3.5-1.4-7-2.1-10.6-.2-1.4-.8-2.1-2.3-1.5-3.3,1.3-6.9,1.4-10.1,3.9,7.5-1.4,11.2,2.8,13.4,9.2Zm-29.2,83.4c2.7-2.9,5-6.5,5.9-11.7-4.3,3.7-8,6.8-11.6,9.9-1,.8-1,1.9-.8,3.1,3,15.1-1.6,28-10.4,40.1-2.8,3.9-7.2,6.6-9.2,12.8,14.2-13,24.2-26.6,23.2-45.7-.1-3.3.5-5.9,2.9-8.5Zm-21.1-2.6c.6-1.9-.6-3-2.2-3.3-2-.3-1.4,1.4-1.5,2.4-.6,4.1-1.2,8.1-1.8,12.2,2.9-3.2,4.2-7.2,5.5-11.3Zm-49.3,41.1c-.3-.4-.5-.8-.8-1.2-5.5,3.4-10.9,6.7-16.4,10.1-.1.5-.3,1-.4,1.4,6.2.9,9.4,5.8,14,10-.2-4.7-2.8-7.1-5.6-9-3.3-2.3-1.9-3.5.3-5,3-2.1,5.9-4.2,8.9-6.3Zm-4.4,33.7c-3-.5-4.8-.9-6.6-1.1-5.6-.6-10.5,1.8-10.4,5.5.2,4.5-1.8,8.8-1,13.3.3,1.7-.4,3.7-1.8,4.4-1.7.8-1.8,1.5-.9,2.8.6.8,1.4,1.9,2.1,1.9,1.3-.1,2.3-1.3,2.4-2.7.4-4.3,1.6-9.1,1.3-12.9-.6-7.1,3.2-8.2,7.9-9.7,1.9-.6,3.8-.8,7-1.5Zm-36.6,17.8c6.2-4.7,9.4-11.2,9.5-18.9,0-3.6-4.1-6.6-9.4-6.7,8.7,4.5,7.3,10.7,4,17.2-1.4,2.7-2.7,5.6-4.1,8.4Zm-13.3-38.2c1.1-7.1-3.5-12.9-11.2-13.4,1.2,1.1,2.2,2,3.2,2.8,5.8,5.1,5.7,8.9-.3,13.7-2.7,2.1-5.4,4.3-7,7.6l.5.5c4.3-2.8,8.6-5.6,12.9-8.4,1-.6,1.7-1.5,1.9-2.8Z"/>
            <path class="cls-1" d="m626.8,299.75c.5,2.5,1.3,5.9,0,7.3-3.4,3.6-2,7.4-1.5,11,1,8.6-3.3,14.3-9.8,18.7-3.3,2.2-5.2,4.9-7.1,8.3-5.3,9.3-13,16.6-22.2,22.1-4.7,2.7-9.3,5.3-13.4,8.9-2.5,2.2-5.5,3.1-9,3.3-9,.4-17.9-1.2-26.8-1.2-6,0-11.6.4-17.4,2.7-7.4,3-14.9,3.5-22.7-.4-8.5-4.2-18.2-4.1-27.3-6.2-11.3-2.6-22.8-4.9-34.1-7.6-1.8-.4-3.6-.4-5.8-.3,2,4.3-.4,8.2-.4,12.4,0,6.6,2.2,11.2,8.6,14.6,29.1,15.4,46.2,40.2,53.3,72,1.7,7.5,5.5,13.1,10.2,18.7,2.7,3.2,5.9,6.2,7,10.7,1.9,7.8-1.2,14.8-3.4,21.9-5.8,18.4-18.2,32.5-30.9,46.2-2,2.1-3.2,4-2.8,7,.4,2.9-.1,5.7-2.1,7.9-1.3,1.4-1.1,3.1-1.1,4.7,0,6,.4,12,.1,18-.3,4.8,1.5,8.2,4.9,11.3,6.7,6.2,13.8,11.8,21.2,17,3.5,2.4,7.6,3.2,11.6,3.4,3.6.2,6.8,1.3,9.9,2.6,7.8,3.2,9.1,13.2,2.4,19.9-6.3,6.3-14.2,10.4-23,11.5-14.8,1.9-29.6,2.8-44.3-1-6.4-1.7-12-5-16.9-9-5.8-4.7-12.6-6.6-19.5-7.9-10.2-1.9-21.1-9.4-20.3-22.9.5-8.2.5-16.2,6.2-23.2,3.5-4.4,2.8-10.5,3.9-15.9.7-3.7,1.6-7.3,1.9-11,.9-9.2,1.2-17.9-4.3-26.7-6.8-10.7-9.7-20.2-2.9-32.8-9.9-2.8-20.2-4.4-29.4-9-11.4-5.6-21.3-13.4-29.8-22.8-2.6-2.8-5.2-4.3-9-3.8-1.8.3-3.7.2-5.5,0-3.6-.4-5.8,1-7.2,4.4-5.4,13.8-14.1,25.2-25,35.2-1.8,1.7-3.6,3.5-5.7,4.8-7.2,4.8-11.5,11.6-14.6,19.4-3.9,9.6-9,18.3-10.1,29.5-1.6,16.6-10.1,30.6-25.8,38.9-3.9,2-7.6,4.4-11.2,6.9-3.9,2.7-7,5.6-7.5,11.3-.5,6.2-3.3,12.2-5.2,18.3-.5,1.5-.5,2.8-.2,4.3,1.8,7.7,3.9,15.5-1.2,22.9-1.1,1.6.2,2.8,1,4,8.2,12.3,6.4,21.3-6.1,29.4-10.6,6.9-22.6,9.8-35.1,10.7-2.6.2-5.3.1-8,.2h-7c-3.7-.7-7.3-1.3-11-2-11.2-3.2-21.7-7.5-29.5-16.5-3.8-9.8.8-17.4,7.1-24,6.2-6.5,12.5-13,18.5-19.6,6.4-7,8.3-15.6,9.9-24.4,1.3-7.2,1.1-14.5.9-21.8-.1-2.1.7-2.7,2.5-3.3,2.7-.9,3.5-2.2,2.9-5.8-1.2-6.9-.6-14.1-.7-21.1-.2-10.8,0-21.5-.3-32.3-.2-8.4,4.2-15.6,9-22.3,3.6-5.2,8.1-9.7,13.7-12.5,7.1-3.6,8.5-8.6,7.1-15.9-1.4-7.5-.8-15.3-1-23-.2-10.2,1.4-19.9,5.6-29.2,5-11.2,12.1-21,20.3-30,4.4-4.9,8-10.5,14-13.9.4-.2.8-.7.9-1.2,2.1-10.8,6.1-21.1,8.8-31.7.5-1.8-.2-2.7-1.2-3.9-2.4-2.8-5.6-4.7-8.7-6.4-9.3-5.1-16.6-12.2-21.9-21.3-1.5-2.5-2.4-2.6-4.2-.5-2.4,2.7-5.6,4.8-9,5.8-2.7.8-3.5,2.1-3.3,4.4,2,21.1-10,35.3-24.3,48-11.9,10.6-26,16.9-41.9,19.1-4.5.6-5,4.1-5.1,7.4-.5,9.6-4.7,17.7-9.8,25.4-5.7,8.6-18.8,7.6-24.5,2.4-2.6-2.3-5.1-4.5-6.5-7.8s-3-3.1-5.5-.8c-8.6,7.7-16.3,8.8-25.4,3.4-6.8-4-10.8-10.4-8.7-19,.9-3.6-1.1-3.4-3-2.7-4.6,1.6-9.4,2.6-14.1,1.4-14.8-3.6-23-20.9-14-34.5,6.1-9.2,12.1-18.7,16.9-28.5,3.4-6.8,3.9-15.3-.8-22.2-6.2-9.2-8.1-18.2-2.8-28.5,4.3-8.3,14.3-11.8,23-11.1,5.4.4,10.1,2.6,15.1,3.7,12,2.8,13.6,13.6,11.2,21.7-1.4,4.7-.6,6.6,3.4,8.4,1.5-6.6,2.5-13.3,4.6-19.6,3.2-9.5,10.2-16,20-17.3,9.9-1.4,13.8-6.8,16.2-15.7,2.5-9.2,7-17.9,12.8-25.7,4.4-5.9,3.5-13.3,5.7-19.8.4-1.2.8-2.5,1-3.8.3-2.1-.3-3.5-2.6-2.2-1.3.7-2.5.5-3.9.6-1.6.1-3.5,2.4-4.8,0-.9-1.8,1.4-2.8,2.3-3.8,5.6-7,11.4-14.1,19.5-20.1h-15c-1.2,0-2.6,0-3-1.2-.3-1,.9-1.7,1.6-2.3,14.7-9.8,29.8-18.6,47.8-20.8,10.6-1.3,21.2-1.8,31.9-.9,3.3.3,5.8-.6,7.9-3,3.3-3.7,7-7,11.4-9.2,2.2-1.1,2-2.1,1.2-4.2-4.5-12.7-6.5-26-6-39.4.4-10,1.5-20.1,4.4-30,1.1-3.7,2.4-7.7,2.6-12h-10.3c-.7-1.8.7-2.7,1.4-3.7,7.6-11,15.3-21.9,24.7-31.3,1-1.1,1.6-1.9,1.2-3.8-1.1-5.6.5-11.1,1.9-16.4.9-3.5,4-5.2,7-6.6,8.6-4,17.9-5.5,27.1-4.9,9.1.6,16.5-4.6,25-5.6,1.7-.2,1.7-1.6.1-2.7-3.4-2.4-6.7-4.8-11.2-8.1,6.6.8,11.9,1.2,17.1,2.1,10.5,1.8,21.2,2.5,31.6,4.9,39.3,9.2,73.6,27,100.1,58,6.4,7.5,14.3,9.1,23.4,10.2,13.2,1.6,19.3,9.5,18.2,22.4-.4,4.8-2.4,10-5.2,13.9-6.4,8.8-12.1,18.5-25,19.9-7.4.8-14.7,3.6-22.3,4.8-2.7.4-7.2,10.1-5.7,12.3,2.4,3.6,3.9,7.8,9.7,8,3.6.1,6.4,3.1,6.7,7.4.5,7.5-1.2,11.4-6.9,13.9-3.4,1.5-8.9,2.2-9.3,5.3-.5,3.2,5.2,3.9,8.1,5.9,12.1,8.8,21.5,20,30.5,32.9-3.5-.8-6-1.4-9.2-2.1,4.3,7.5,10.6,13.1,13.7,20.9-3.8-1.5-7.4-3.2-11.8-3.6,5.2,7.4,10.3,14.2,12.8,22.6,2.1,6.9,1.7,14,3,20.9.5,2.5,1.2,4,3.8,4.4,15.4,2.3,27.4,10,36.4,22.5.4.5.8,1.1,1.3,1.5.8.7,1.1,2.4,2.6,1.6,1-.5.9-1.6,1.1-2.6,1-8,3.5-15.2,10-20.5,1.1-.9,2.4-1.7,3.6-2.6,6.3-4.6,12.3-9.4,16.3-16.3,4.4-7.5,13.2-8,20.1-5.7,4.6,1.5,10.1,1.7,13.2,6.6.4.6,1,.3,1.7.1,9.8-3.7,19,.4,28.2,2.7,2.9.7,3.6,4.2,5.6,6.2,6,5.8,9.5,12.9,10.9,21Zm-7.7,7.5c3-1.2,2.5-3.9,2.2-6-2-13.9-12.2-28.1-29.6-27.5-7.3.2-8.1.9-8.5,8.1-.1,2.9,1.8,6.5-.1,8.4-3.1,3.1-3.4,6.4-2.6,10,.5,2.4-.7,3.1-2.2,3.6-6.1,2-7.6,1.3-11.1-4.3-.9-1.4-1.3-1.9.5-2.8,8.1-3.9,8.5-11.1,8.2-19-.2-5.1-2.5-7.6-7-8.4-11.3-2-13-4-20.5,7.7-1.9,2.9-3.5,5.8-6.8,7.6-12.3,6.6-19.3,16.6-19.4,30.9,0,1,.1,2.3-1.3,2.3-3.8-.1-7.7,1.2-10.7-3-9-12.7-20.3-22-36.5-24.2-7.5-1-7.5-1.6-7.5-9.3-.1-12-3-23.1-9.8-33.2-3.7-5.5-8.4-10.4-10.2-17.1-1.6-5.8-1.7-5.9,4.4-5.4-3.5-4.9-6.8-9.5-10-14.1,2.4-1.4,4.4.8,7.3,0-8.5-9.8-17.2-18.6-29.1-23.1-4.7-1.8-3.2-3-1.5-5.7,3.1-5.2,8-7.6,13.3-9.8,5.5-2.2,5.9-3.6,3.7-9.9h-.01s.01-.07.01-.1l-.15.03c-1.35-.71-2.75-1.16-4.19-1.45-1.48-.3-3.01-.43-4.56-.48l-.1-.1c-.8-5.1-5.2-8.1-7.7-12.1-.7-1.1-1.9-1.5-.5-3.1,3.2-3.5,4.8-7.9,6.7-12.2.9-2,2-3.1,4.3-3.4,9.6-1.3,19.2-3.2,28.5-6,4-1.2,8.1-2.3,8.6-7.4.1-1,.7-1.3,1.4-1.7,7.8-4.5,9.4-12.2,10.5-20.2.5-3.8-1.1-6.7-3.8-9.1-4.5-4-10.2-5.6-15.8-5.2-6.8.4-11.7-2.3-16.2-6.6-3-2.9-5.9-5.9-8.7-9-13.5-14.5-29-26.2-46.6-35.3-13.3-6.9-27.4-11.8-41.8-15.3-8.6-2.1-17.4-4.4-26.5-4.1-.5,1.6,2,2,1.2,3.8-4.3.8-8.9,1.1-13.2,2.5-12.4,4.2-24.7,8.1-38.2,6.9-4.7-.4-9.9,1.7-14.5,3.8-1.1.5-2.4.8-2.9,2.4-1.5,5.3-2.9,10.7-1.6,16.1.6,2.6-.1,3.7-1.6,5.1-6.2,5.6-11.2,12.2-16.4,18.8-1.5,2-4.5,4.2-3.7,6.5.9,2.6,4.6.4,6.9,1.5-.5,1.5-1.1,3-1.6,4.5-6.1,18.2-8.6,36.8-7,56,.9,10,3,19.9,6.8,29.1,1.3,3.3.4,3.9-2,5-6.8,3-12.3,7.9-16.7,13.8-1.2,1.6-2,1.5-3.5,1.3-14.6-1.8-29.1-1.2-43.4,2-7.7,1.8-15.4,3.9-22.5,8.7,5.7,3.1,11.1-1.1,16.5.7-7.9,6.4-16.2,11.7-23.1,18.6-1.2,1.2-3.6,2.1-3,4.1.6,1.8,3.1,0,4.4,1.1-.9,3.9-1.4,7.8-2.7,11.5-3.4,9.4-2.7,19.8-9.8,28.5-7.2,8.9-11,20.1-13.2,31.6-.6,3.2-2.1,5.9-5.6,5.6-2.5-.1-4.6.6-6.6,1.3-7.8,2.6-16.6,3.7-19.9,13.3-1.6,4.6-3.1,9.2-3.9,14.1-.9,5.3-.7,10.9-3.7,15.7-.5.8-.7,2-1.9,2-.4,0-1.1-.8-1.2-1.3-.7-4.7-4.6-7-8-8.7-5.1-2.6-5.4-5.1-2.9-9.9,4.3-7.9,1.5-14.1-6.8-17.3-3.5-1.3-7-2.5-10.7-3.1-7.4-1.3-15.4,1-18.8,6.1-5.1,7.5-5.9,14.4-.1,21.1,4.8,5.7,5.6,11.5,5.1,18.2-.3,3.6,1.2,7.6-.8,10.8-6.2,9.8-11.3,20.2-18.1,29.7-4,5.6-5.5,11.6-2,18.1,3.3,6.1,7.8,9.7,15.3,9.3,6.9-.4,13-2.7,18.8-6,1.5-.9,2.7-1.8,4.3-.8-1.5,4-3.2,7.9-4.6,11.9-2.4,6.9-.5,12.6,5,15.8,7.2,4.3,11.9,3.5,17.7-2,4.1-3.9,6.8-8.9,10.9-13.3,1.2,6.7,2.9,12.5,6.4,17.6,5.1,7.2,16.3,7.4,21-.3,5.3-8.8,8-17.8,7-28-.3-2.9.3-4,3.6-4.1,8.4-.3,16.6-2.3,24.3-5.5,17.2-7.2,30.5-19.1,39.6-35.3,3.1-5.5,6.4-11.6,4.5-18.9-.7-2.7-1.9-7.3,1.5-9.2,7.4-4,15-7.6,18.7-16,6.8,11.2,13.5,21.7,24.5,28.5,4.6,2.8,8.9,6,13.2,9.2,2.1,1.6,3.4,3.2,2.2,6.6-2.7,7.9-4.2,16.2-6.8,24.1-1.4,4.5-1.2,10-5,13.1-5.6,4.8-10.4,10.3-15.2,15.7-14.9,16.6-24.9,35.2-23.3,58.5.5,7.4,0,14.9,1.5,22.2,1.2,5.8-1.3,11.3-6.6,14.4-11,6.6-20.9,15.2-22.5,28.2-2.4,19.1-1.5,38.5.4,57.8.4,3.7,2.6,9-4.5,9.9-1.4.2-1.4,1.7-1.4,2.9,0,6.7-.7,13.3-1.6,20-1.4,9.6-4.1,18.2-10.5,25.6-5.7,6.6-11.5,13-17.9,18.9-2.6,2.4-4.8,5.2-6.4,8.3-2.1,4.2-2.9,8.6,1.1,12.2,3.8,3.5,8.4,6.1,13.2,7.8,12.1,4.3,24.4,7.4,37.6,5.1,10.2-1.8,20.2-3.8,29.1-9.4,10.5-6.6,11.7-13.6,3.6-23-.45-.52-.82-1.02-1.11-1.51-.98-1.68-.97-3.25.11-5.19,4.1-7.1,4.2-14.3,1.1-21.8-.14-.36-.22-.73-.25-1.1-.11-1.17.29-2.41.75-3.7,2-5.9,5.2-12.1,5-18-.3-7.6,3.6-11.5,8.4-15.2,4.9-3.7,10.2-6.8,15.5-9.9,12.1-7.2,19-18.1,20.3-31.7,1-10.4,4.5-19.6,9.3-28.6,1.7-3.2,2.9-6.6,4.4-9.9,2.1-4.7,5-8.6,9.1-11.9,9.7-7.6,19-15.8,25.9-26.2,3.9-5.9,6.3-12.5,9.6-18.7,1.1-2,2.2-2.9,4.6-3.5,4.8-1.2,9.8.2,14.3-1,3.8-1.1,5.7.1,8,2.7,14.4,16.2,31.7,27.7,53.5,31.6,5.4,1,10.6,2.7,16.4,4.2-9.2,6.3-11.5,13-8.7,22.6,1.3,4.7,3.4,9.1,6.2,12.8,5.7,7.5,4,16.2,4.2,24.3.1,5.4-1.4,11.4-2.8,16.9-1.3,5.2-.2,11.2-4,15.6-4.9,5.7-5.8,12.3-5.8,19.3.1,10.7,5,16.3,15.5,18.2,7,1.2,14.2,2.5,19.7,7.2,10.2,8.7,22.1,12.1,35.2,12.2,13.9.2,27.7-.4,39.8-8.5,3.1-2,6.2-4.6,5.8-9.1-.5-4.6-4.8-5.5-7.6-5.6-6.3-.1-12.1-2.6-18-5.3-4.8-5.1-11.6-8-16.4-13.2-3.8-4.1-9.1-7-10.5-13.3-3.2-14.2,1.1-28,1.4-42.1,0-.4.6-.8.9-1.1,4.2-4.8,8.2-9.8,12.6-14.5,11.8-12.5,20.1-26.8,23.7-43.7,1.2-5.6,1.1-10.8-3.3-15.5-6.8-7.3-11.5-15.2-13.6-25.7-3.8-18.8-13.8-35-27.2-48.9-7.9-8.2-17.4-14-27.3-19.3-4.7-2.5-7.9-10.8-7.3-16.2.5-4.4,1.8-8.7.4-13.6-2.2-7.6-1.7-7.8,6.6-6,1.4.3,2.9.3,4.4.6,12.4,2.7,25,4.7,37.3,7.7,10,2.4,20.6,2.6,30,7.6,3.6,1.9,7.6,1.6,11.5.2,7.2-2.4,14.3-4.6,22.1-4,9.3.7,18.6.6,27.9,1,2.6.1,4.8-.5,6.8-2.3,4-3.8,9-6,13.5-9.1,8.7-5.9,17.6-12,21.2-22.8.8-2.3,2.2-3.9,4.4-5,7.7-3.7,11.6-9.6,10.2-18.4-.3-1.6-.6-3.3-.9-4.9-.2-1.1-.8-2.5.6-3.1Z"/>
            <path class="cls-3" d="m611.1,303.35c3.7,3.5,6.5,12.4,5.6,18.9-2-6.9-3.8-12.7-5.6-18.9Z"/>
            <path class="cls-3" d="m610.4,286.95l-.2.1c-3.4-2.4-5.4-6.5-10.6-6.4-4,.1-7.9-1.4-12.5-2.2,9.5-4.2,21.1.4,23.3,8.5Z"/>
            <path class="cls-3" d="m609.5,298.55l-.5.5c-7.1-5.7-15.1-7-23.8-4.1,2.1-4.3,6.2-4.3,9.9-4,5.7.6,11.5,1.5,14.4,7.6Z"/>
            <path class="cls-3" d="m592.9,322.45c1.2,2.6,2.8,5.1,3.1,8.5-2.6-1.4-3.4-3.7-4.6-5.6-3.8-5.6-7.6-7.3-14.2-6-1.6.3-3.3.5-4.9.7l-.1-.2c5.2-5.6,17.5-4,20.7,2.6Z"/>
            <path class="cls-3" d="m551.1,351.55c2.1-8.9,8.9-13,20-12.4-7.8,3-14.7,5.6-20,12.4Z"/>
            <path class="cls-3" d="m566.5,307.25c-2.9-2.3-5.7-5.5-7.2-9.7,3-.1,4.8,1.3,5.9,3.6,2.5,4.9,6.7,7.1,11.9,7.7.2.1.3.3.5.5-4.2,1.8-8.3.1-11.1-2.1Z"/>
            <path class="cls-3" d="m560.7,270.05c4,0,7.4,1.9,10.8,3.5,1.9.9.2,4.5,1.9,7-2,.3-2.5-.3-2.9-1.1-4-7.8-12.2-8.7-16.3-1.1-4,7.5-10.3,12.3-16.3,17.7-2.9,2.6-5.4,5.7-8.4,9-.7-5.2,2-8.4,5.1-10.6,8.4-6,15.8-12.8,21-21.9,1.1-2,2.9-2.5,5.1-2.5Z"/>
            <path class="cls-3" d="m521.5,327.45c2.9.3,4.7,2.6,6.1,6.1-9.3-2.3-17.9-4.4-26.4-6.5.1-.4.1-.7.2-1.1,6.7.5,13.4.8,20.1,1.5Z"/>
            <path class="cls-3" d="m498.3,333.95l25.5,4.5c2.4.4,4.9.8,7.3,1.4,1,.2,3.1-.4,2.5,2-.5,1.8-1.6,2.1-3.4,1.6-6.7-1.9-13.4-3.6-20.1-5.4-4-1.1-7.9-2.2-11.9-3.3,0-.3.1-.6.1-.8Z"/>
            <path class="cls-3" d="m488.9,486.05c2.3,4.4,6.3,5.9,7.6,9.6.5,1.2,1.3,2.8-.8,3-5.7.7-10.6,2.8-14.8,6.9.7-4.4,3.3-7.4,7.2-8.2,4.6-1,4.5-2.7,2.2-5.9-.8-1.1-1.8-2.3-1.4-5.4Z"/>
            <path class="cls-2" d="m490.4,633.15h-.08s0-.06-.02-.1l.1.1Z"/>
            <path class="cls-1" d="m477.5,463.15c.8,2.4.4,3.6-1.2,5.1-8.4,7.9-17.8,14.4-27.5,20.4-1.9,1.2-3.4,1.2-5-.7-5.1-5.8-10.4-11.3-16-17.5-1.1,3.5,1.3,5.5,2.3,7.7,1.8,3.7,3.5,7.5,5.9,10.7,2.8,3.8,2.1,5.2-2.2,7-18.3,7.5-36.3,7.9-54.4-.9-12.8-6.3-24.6-13.7-34.1-25,8.8-3.7,15.5-9.9,22.4-15.9.9-.8,1.2-2.2,1.5-3.8-9.2,6.8-18,14.4-29.8,16.1-11.1,1.6-22.3,7.7-33.3-.5-.2.4-.6.8-.5.9,6.2,9.2-1.5,15.9-4.8,23-3.8,8.3-10.8,14.4-17.4,20.7-1.7,1.7-3.7,2.5-6.2,2.4-16.8-.4-32.5-4.6-47.5-12-3.5-1.7-3.8-4-2.2-7.2,4.6-9.1,9.6-17.9,16.8-25.3-2.5-1.3-3.5.7-4.6,1.8-6.2,6.6-11.8,13.6-16.1,21.6-1.5,2.7-3.1,3.8-5.7,1.8-7.2-5.5-13.3-12.1-18.5-19.7-2.4-3.5-1.5-7-.7-10.2,3-11.8,9.2-21.9,17.4-30.8,7.1-7.7,14.1-15.6,23-21.3,1.9-1.2,1.9-3.7,2.4-5.7,2.9-11,6-21.9,8.4-33,1-4.9,3.9-4.4,7-3.7,2.1.5,4,1.3,6.7-.7-12.8-6.9-24.7-14.3-36.6-23.3,4.6-.8,7.9.8,11.4,1.2,9.6,1,18.9,1,27.9-3.4,6.8-3.3,6.4-9.6,7.2-15.5.5-4.2.7-8.5,1.1-12.8.1-1.6.6-2.9,2.7-2.5,18.3,3.1,36.7,1.1,55.1,1.4,2,0,3.8-.3,5.4-1.2-16.4-1.8-32.9-3.4-49.4-5.7-3.8-.5-7.7-1-11.5-1.7-2.6-.5-3.3-1.6-3.3-3.9.1-18.2-4.3-35.8-10.2-52.7-8.1-22.9-19.5-44.2-34.7-63.2-1.2-1.5-4.6-3.2-1.7-6,2.8-2.6,5.2-.7,7.4,1.1,13.3,10.7,23.8,24,34.1,37.5,8.9,11.6,15.9,24.4,25.5,35.5,15,17.3,32.9,29,56,32.8,14.2,2.3,28,2,41.5-2.2,17.3-5.4,26.3-19.2,25.9-36.6-.2-8.6-3.7-16.8-6.7-24.9-2.7-7.1-5.2-14.4-7.7-21.5-.5-1.4-1.6-3,1-4,2.1-.8,2.9.4,3.6,1.7,10.3,18.8,23.3,36.2,27.3,58,2.1,11.3,3.3,22.5.7,33.8-.6,2.7-2.8,4.1-4.7,5.5-4,2.5-7.9,4.6-12.4,7.3,4.3,1.9,7.6-1.1,11.2.1-3.8,9.2-7.7,18.4-11.2,27.7-2,5.2-3.2,10.7-4.9,16-.5,1.5.2,2.5.5,3.8,1.8,8.2,3.5,16.5,3,24.9-.4,6.6.5,12.7,3.8,18.5,1.8,3.2,2.2,6.4-1.9,8.5-.8.4-1.3,1.4-1.8,2.1.8,1.5,2,1.4,2.6.8,4.5-3.9,8.8-1.5,12.9.5,14.4,7.3,25.3,18.4,33.7,32.2,4.8,7.9,8.2,16.2,11.1,24.9Zm-105.3-94.2c-1.3,0-2.7-.1-4,0-5.7.3-5.4.4-3.9-5.3,1.1-4,2.6-8,1.1-12.4-1.1,4.4-3,8.5-4.2,12.8-1.1,3.6-1.7,7.5-7.1,7.1-2-.2-4.1.8-6.7,1.4,2.7,1.7,4.8,1.7,7.1.8,3.8-1.5,5-.1,4.8,3.8-.2,4.8.1,9.7-.1,14.5-.2,5.3,2,9.6,4.8,14.3,1-7.6-.5-14.5-.8-21.5-.3-7.3-1.2-14.6,9-15.5Z"/>
            <path class="cls-3" d="m477.6,639.35c-.89.29-1.62.46-2.14.42.5-.01,1.16-.17,1.94-.42,3.9-1.2,7.4-3.4,11.4-3.5-4,.2-7.5,2.3-11.2,3.5Z"/>
            <path class="cls-2" d="m473.84,627.39c1.23.12,2.26.54,2.46,2.06.17,1.53-.36,2.1-1.17,2.29.79-.21,1.28-.79,1.07-2.29-.2-1.5-1.18-1.92-2.36-2.06Z"/>
            <path class="cls-2" d="m474.95,631.78c-.11.02-.22.04-.34.05.12-.02.23-.03.34-.05Z"/>
            <path class="cls-3" d="m467.9,85.25c6.5,2.8,7.9,5.9,5,13.6-.1-5.8-.7-11.3-8.4-11.1-.5,1.9-.3,4.4-1.9,6.3-.7-7.6-.6-7-8.7-6.4-7.4.6-14.6,1.4-21.9,3.1-1.8.4-3.2,1.5-5.1,1.9-.9-2.3-1.1-4,1.5-5.3,3.3-1.7,8.2-2.3,9.5-5.6,1.2-3.1-3.9-5.4-4.4-9.4,2.4,1.9,4.9,3.8,7.3,5.7,4.5,3.4,9.2,6.3,15.3,5.9,4-.2,7.9-.3,11.8,1.3Z"/>
            <path class="cls-3" d="m472.82,631.78c-.48-.01-.94-.02-1.32.07-.94-.07-2.29.32-3.14-.12-.38-.23-.63-.64-.66-1.38-.09-1.03.25-3.63,2.17-3.39.1.02.21.05.33.09.39.13.84.19,1.3.22.77.06,1.6.03,2.34.12,1.18.14,2.16.56,2.36,2.06.21,1.5-.28,2.08-1.07,2.29-.06.01-.12.03-.18.04-.11.02-.22.03-.34.05-.43.03-.9,0-1.37-.02-.14-.02-.28-.02-.42-.03Z"/>
            <path class="cls-2" d="m470.3,627.05c.36.13.77.19,1.2.22-.46-.03-.91-.09-1.3-.22-.12-.04-.23-.07-.33-.09.14.01.28.05.43.09Z"/>
            <path class="cls-3" d="m470.59,633.8c-.89-.01-1.85.03-2.68-.09.86.1,1.82.07,2.68.09Z"/>
            <path class="cls-3" d="m467.46,633.64l.18.03c-.07-.01-.13-.02-.18-.03Z"/>
            <path class="cls-2" d="m465.5,624.65c.16.07.3.12.42.15-.16-.02-.33-.07-.52-.15-.43-.17-.88-.26-1.36-.33.51.06,1,.15,1.46.33Z"/>
            <path class="cls-2" d="m467.6,630.35c.07.75.35,1.16.76,1.38.85.44,2.2.05,3.14.12.38-.09.84-.08,1.32-.07.13,0,.27.02.42.03.47.02.94.05,1.37.02.12-.01.23-.03.34-.05.06-.01.12-.03.18-.04.81-.19,1.34-.76,1.17-2.29-.2-1.52-1.23-1.94-2.46-2.06-.74-.09-1.57-.06-2.34-.12-.43-.03-.84-.09-1.2-.22-.15-.04-.29-.08-.43-.09-2-.41-2.27,2.35-2.27,3.39Zm-6.15-6.22c.83.12,1.72.1,2.57.19h.02c.48.07.93.16,1.36.33.19.08.36.13.52.15.02.01.04.01.06.01,1.56.35,1.43-1.95,2.24-3.23.06-.08.12-.16.18-.23-.06-.08-.11-.16-.17-.24-1.42-1.85-3.48-1.41-5.33-1.55l.12-1.82c.6.05,1.44.04,2.58.01,4.4.2,5,4.9,8.3,6.8,2.2,1.2,4.4,2.7,5.8,5.8,1.79,3.97,6.83,2.62,10.62,2.8.31,1.23-.94,1.82-1.52,2.7-4,.1-7.5,2.3-11.4,3.5-.78.25-1.44.41-1.94.42-.94-.05-1.2-.75-.56-2.62,1.02-2.98-.34-3.13-2.19-3.23-.06,0-.13,0-.2-.01-.26-.02-.53-.04-.81-.06-.14-.01-.28-.02-.42-.02-.15-.02-.3-.03-.45-.02-.08-.01-.16-.01-.24-.01-.86-.02-1.82.01-2.68-.09-.09-.01-.18-.03-.27-.04l-.18-.03s-.03-.01-.04-.01c-1.57-.37-2.46-1.5-1.02-4.98.3-.8-.1-1.5-1.1-1.8-1.2-.4-2.3-1-3.7-1.1-.08,0-.15-.01-.23-.01l.08-1.61Z"/>
            <path class="cls-3" d="m462.61,614.96c1.57.07,2.5.97,2.79,2.69-1.77.04-2.83.05-3.36-.15-.5-.32-.18-1.02.56-2.45,0-.03.01-.06.01-.09Z"/>
            <path class="cls-2" d="m462.04,617.5c-.77-.27-.46-.96.36-2.55.07,0,.14,0,.21.01,0,.03-.01.06-.01.09-.74,1.43-1.06,2.13-.56,2.45Z"/>
            <path class="cls-3" d="m458.7,622.25c-.35-.7.37-3.08,1.96-3.13.2.01.42.05.64.13.45.17.92.26,1.41.3,1.93.2,4.06-.26,5.52,1.56.06.08.11.16.17.24-.06.07-.12.15-.18.23-.88,1.23-.78,3.41-2.24,3.23-.02,0-.04,0-.06-.01-.12-.03-.26-.08-.42-.15-.46-.18-.95-.27-1.46-.33h-.02c-1.28-.16-2.67-.07-3.78-.5-.1-.04-.2-.09-.3-.14-.51-.29-.94-.73-1.24-1.43Z"/>
            <path class="cls-3" d="m460.4,572.45c.3,3.4-1.9,6.3-2.1,9.5-4.08,2.94-8.16,3.61-12.24,1.75-.12-.05-.22-.11-.33-.16-.75-.38-1.49-.84-2.23-1.39h-.06s-.09-.07-.14-.1c.4-2.3-1.2-5.4,1.5-6.8,4.3-2.3,8.2-5.7,13.3-6,1.8-.1,2.1,1.6,2.3,3.2Z"/>
            <path class="cls-3" d="m456.92,625.27c.79.21,1.95.32,3.53.42-1.62-.08-2.77-.18-3.53-.42Z"/>
            <path class="cls-2" d="m458.6,622.25c-.36-.71.4-3.18,2.06-3.13-1.59.05-2.31,2.43-1.96,3.13.3.7.73,1.14,1.24,1.43-.55-.27-1.02-.71-1.34-1.43Z"/>
            <path class="cls-3" d="m456.89,604.15c.34.35.52.87.41,1.7-.1.7-.1,1.5-.1,2.2-1.6.3-3.2.8-4.7.8-1.88,0-3.98.59-5.8-.31-.24-.13-.47-.29-.7-.49-.8-.7-.2-1.3.3-1.6,2.6-1.4,4.5-4.7,8.3-3.2.74.34,1.68.46,2.29.9Z"/>
            <path class="cls-3" d="m454.9,100.45c.7,2.6-.4,3.9-2.3,5.3-.5-2.4,1.2-3.5,2.3-5.3Z"/>
            <path class="cls-2" d="m452.83,615.9c1.11.44,2.22.83,3.37.94-1.16-.09-2.25-.49-3.37-.94Z"/>
            <path class="cls-3" d="m454.1,265.25c-1.9-7.2-4.9-14.1-8.6-21.3,2.9.5,3.4,2.7,4.2,4.1,6.2,11.2,11.7,22.6,11.8,36,0,4.3,2.6,8,7.7,9.1,3.8.9,7.8,1,11.4,3.5-10.3-1.5-20.4-2.3-29.4,5.2-.2-.6-.3-1.2-.4-1.8.8-.6,1.7-1.1,2.4-1.7,3.6-3,8.1-4.3,4.9-11.7-2.7-6.2-2.2-14.3-4-21.4Z"/>
            <path class="cls-3" d="m456,589.25c-5.7,4.4-8.1,4.6-14.2,1,5.1-.3,9.2-5.4,14.2-1Z"/>
            <path class="cls-3" d="m451.5,615.35c1.07-3.15,2.74-3.33,4.51-2.98.97.2,1.96.56,2.89.65.21.02.41.03.6.03.7,0,.8.9.5,1.6-.4.9-.7,1.8-1.9,2.1-.22.04-.44.08-.65.1-.42.05-.84.04-1.25-.01-1.15-.11-2.26-.5-3.37-.94-.44-.18-.88-.37-1.33-.55Z"/>
            <path class="cls-3" d="m451.59,617.93c-.14-.01-.27-.02-.41-.03.13.01.27.02.41.03Z"/>
            <path class="cls-3" d="m455.4,597.15c-3.4,5-7.3,3.3-11.6,1.2,3.27-2.85,6.32-3.59,9.64-2.23.65.26,1.3.61,1.96,1.03Z"/>
            <path class="cls-3" d="m452.7,116.15c-1.7,5.1-2.4,5.4-12,6.4,3.9-2.1,7.8-4.2,12-6.4Z"/>
            <path class="cls-3" d="m449.11,617.65c.55.11,1.2.17,1.87.23-.69-.04-1.34-.1-1.87-.23Z"/>
            <path class="cls-2" d="m456.01,612.37c-1.77-.35-3.44-.17-4.51,2.98.45.18.89.37,1.33.55,1.12.45,2.21.85,3.37.94.41.05.83.06,1.25.01.25-.01.5-.05.75-.1,1.2-.3,1.5-1.2,1.9-2.1.3-.7.2-1.6-.5-1.6h-.1c-.19,0-.39-.01-.6-.03-.93-.11-1.93-.46-2.89-.65Zm-6.51,1.08c1.3-1.4.4-2-.8-2.5-.18-.06-.38-.07-.59-.07l.25-1.81c1.4.2,2.89-.12,4.34-.12,1.6,0,3.2-.5,4.7-.8-1.8,3.5,2,3.6,3.1,3.7,2.55.2,2.31,1.55,2.11,3.11-.07-.01-.14-.01-.21-.01-.82,1.59-1.13,2.28-.36,2.55.19.14.51.21.98.24l-.12,1.82c-.07,0-.13-.01-.19-.01-.46-.05-.9-.13-1.31-.3-.26-.1-.51-.14-.74-.13-1.66-.05-2.42,2.42-2.06,3.13.32.72.79,1.16,1.34,1.43.1.05.2.1.3.14.38.16.78.26,1.21.31l-.08,1.61c-.19-.01-.37-.02-.54-.03-.13,0-.26-.01-.38-.02-1.58-.1-2.74-.21-3.53-.42-.02-.01-.05-.01-.07-.02-1.82-.61-1.31-2.06.35-6.1-1.7-.4-3.4-1.1-5.2-1.2-.13,0-.27-.02-.4-.02h-.01c-.14-.01-.28-.02-.41-.03-.07-.01-.13-.02-.2-.02-.67-.06-1.32-.12-1.87-.23-.14-.03-.28-.06-.41-.1-1.39-.45-1.7-1.48.8-4.1Z"/>
            <path class="cls-3" d="m447.91,610.88c-.16,0-.32.01-.47.01.16-.01.31-.01.47-.01Z"/>
            <path class="cls-3" d="m443.2,550.45c3.5-14.9-3.5-25.4-13.4-34.7,6.7-3.8,9.1.1,11.5,5.1,3.7,7.5,5.9,15.1,4.7,23.5-.3,2-.6,4.2-2.8,6.1Z"/>
            <path class="cls-2" d="m445.8,607.95c-.8-.7-.2-1.3.3-1.6,2.6-1.5,4.6-4.7,8.3-3.2.83.32,1.9.39,2.49,1-.61-.44-1.55-.56-2.29-.9-3.8-1.5-5.7,1.8-8.3,3.2-.5.3-1.1.9-.3,1.6.23.2.46.36.7.49-.31-.15-.61-.34-.9-.59Z"/>
            <path class="cls-3" d="m443.5,582.15c.74.55,1.48,1.01,2.23,1.39-.77-.37-1.53-.83-2.29-1.39h.06Z"/>
            <path class="cls-3" d="m435.9,576.75c4,0,5.4.8,5.1,4.6h-.06c-.54-.04-1.19-.33-1.68-.29-.41-.03-.73.08-.86.59-.18.79.58,1.98,1.72,2.11h.03c.2.04.42.04.65-.01.24-.05.46-.07.67-.07,1.92.05,2.55,1.75,2.73,3.07.3,2.2-2,2-3.5,2.6-1.1.5-2.6.7-3,2.3,2.1,1.9,4.8,2,7.5,2.4-.2.5-.3.8-.5,1.1-1.2,1.7-4.9,1-4.6,3.5.12,1.48,1.26,1.87,2.56,2.09.89.15,1.87.23,2.64.51,2.9,1,1.1,2.3-.1,3.2-1.7,1.2-4.7,2.1-4.4,3.8.4,2.6,4,1.1,5.8,2.5.19.14.48.15.8.14h.04c.15,0,.31-.01.47-.01h.06c.19,0,.37.02.53.07,1.2.4,2.1,1.1.8,2.5-2.61,2.74-2.15,3.69-.6,4.1.13.04.27.07.41.1.53.13,1.18.19,1.87.23.07,0,.13.01.2.02.14.01.27.02.41.03h.01c.07.01.13.01.2.02,1.7.1,3.5.8,5.2,1.2-1.71,4.12-2.21,5.5-.15,6.1.02.01.05.01.07.02.76.24,1.91.34,3.53.42.12,0,.25.02.38.02.18.02.37.03.57.04,1.4.1,2.5.7,3.7,1.1,1,.3,1.5,1,1.1,1.8-1.49,3.54-.46,4.64,1.22,4.98.01,0,.02.01.04.01.05.01.11.02.18.03.09.01.18.03.27.04.83.12,1.79.08,2.68.09.08,0,.16,0,.24.01.16,0,.31.01.45.02.08.01.15.01.22.02.34.03.68.05,1.01.06.07.01.14.01.2.01,1.77.11,3.06.36,1.99,3.23-.69,1.99-.34,2.66.76,2.62.52.04,1.25-.13,2.14-.42,3.7-1.2,7.2-3.3,11.2-3.5,5.5,4.5,12.5,3.6,18.8,5,1.5.3,3.1.2,3.5,2.1s-1.1,2.5-2.4,3.3c-5.4,3.5-11.1,5.6-17.6,5.6-13.2,0-26.9,2.1-39.4-3.1-13.2-5.5-26.7-10.2-39.5-16.3-11.1-5.3-12.1-14.2-2.5-26.2,1.8-2.3,2.9-4.2,2.6-7.1-.7-5.6,4.1-8.4,6.8-12.1,4-5.5,8.6-10.4,16.8-10.3Z"/>
            <path class="cls-3" d="m440.6,583.75c.32-.06.61-.08.87-.07-.21,0-.43.02-.67.07-.23.05-.45.05-.65.01.14.01.29.01.45-.01Z"/>
            <path class="cls-3" d="m439.26,581.06c.49-.04,1.14.25,1.68.29-.51.04-1.16-.25-1.68-.29Z"/>
            <path class="cls-2" d="m443.8,598.35c4.3,2.1,8.2,3.8,11.6-1.2-.66-.42-1.31-.77-1.96-1.03-3.31-1.39-6.37-.7-9.64,2.23Zm12.2-9.1c-5-4.4-9.1.7-14.2,1,6.1,3.6,8.5,3.4,14.2-1Zm-17.4-7.6c.11-.42.35-.57.66-.59.52.04,1.17.33,1.68.29.09.01.18.01.26,0,.59.78,1.46.8,2.24.8.76.56,1.52,1.02,2.29,1.39.11.05.21.11.33.16,4.14,1.98,8.29,1.34,12.44-1.65-1.2,3.1,3.1,6.6-1,9.8-3.1,2.3,3.5,3.6,1.5,5.7-2,2-2.8,3.3-.3,5.1,3.2,2.4,1.4,2.9-1.2,3.3.13-.94-.15-1.46-.61-1.8-.59-.61-1.66-.68-2.49-1-3.7-1.5-5.7,1.7-8.3,3.2-.5.3-1.1.9-.3,1.6.29.25.59.44.9.59.53.3,1.09.46,1.66.53l-.25,1.81h-.2c-.16,0-.31,0-.47.01h-.04c-.24,0-.45-.03-.6-.14-1.8-1.4-5.4.1-5.8-2.5-.2-1.7,2.8-2.7,4.4-3.8,1.2-.8,3-2.2.1-3.2-.83-.31-1.89-.34-2.84-.51-1.22-.21-2.25-.63-2.36-2.09-.2-2.6,3.4-1.8,4.6-3.5.2-.3.3-.6.5-1.1-2.7-.4-5.5-.5-7.5-2.4.4-1.6,2-1.8,3-2.3,1.5-.6,3.7-.5,3.5-2.6-.18-1.36-.86-3.14-2.93-3.07-.26-.01-.55.01-.87.07-.16.02-.31.02-.45.01h-.03c-1.03-.21-1.69-1.37-1.52-2.11Z"/>
            <path class="cls-2" d="m437.6,224.95c-3-3.5-6.1-6.9-9.1-10.4-.3-.4-1.1-.6-.5-1.5,1.4-2.1,1.4-2.7-1.2-3.2-8.2-1.4-10.9-8.6-15.4-13.9-1-1.2-1.5-2.5.2-3.7,1.2-.8,1.5-2.9,3.9-1.7,7.6,3.6,14.2,8.7,20.7,14,.5.4,1.1.9.8,1.6-.4.9-1.6.9-2.1.5-1-.6-1.8-1.5-3.4-.5,3.2,3.7,6.5,7.5,9.7,11.2.6.7,1.2,2.5.3,2.2-6.5-2.3-.2,3.7-2.8,3.7-.3.7-.7,1.2-1.1,1.7Z"/>
            <path class="cls-3" d="m434.3,162.95s-.01.06-.01.1c-.05-.03-.09-.05-.14-.07l.15-.03Z"/>
            <path class="cls-3" d="m431.4,165.15c-1.6-1-3.9.4-6.1-1.1,2.95-1.96,6.09-.55,8.85-1.07.05.02.09.04.14.07-.16,1.7.54,4.36-2.89,2.1Z"/>
            <path class="cls-2" d="m422.3,162.55c1.2,2.3.4,3.8-1.8,4.2-13.5,2.4-26.7,6.6-40.5,7.1-5.7.2-10.8-2.9-16.1-4.7-1.6-.5-1.7-1.5-1.1-3.1,3.7-9,9.2-17,13.4-25.8,1.5-3.1,2.7-.7,3.3.9,3.2,7.4,6.2,14.9,9.4,22.4.4.9-.3,2.5,1.6,2.5,2.4,0,1.3-1.8,1.6-2.9,1.1-3.4,2-6.9,4.1-10.6,2.9,4.4,5.5,8.3,8.4,12.5,2.2-3.5,1.3-7.8,3.7-11.4,2.1,3.3,4.3,6,4.9,9.6.1.8,0,1.8,1.2,1.6,1.2-.1,1.1-1.2,1-1.9-.3-2.9-.2-7.5,1.9-7.5,2.3,0,3.7,4.4,5,7.1Z"/>
            <path class="cls-2" d="m421,62.75c2.3,2.9.8,5.4-2.9,5.1-13.7-1.3-26.6-4.7-37.8-13.5-16.3-12.9-35.1-21-54.4-28.6-.9,1.6,1,2.5.4,4-9,.5-18.3,1.4-27-4.1,10.2-4.1,20.3-5.3,30.7-4.7,2.1.1,4.2.1,6.3.8.7.2,4.4,2.2,3.5-2.1-.2-.8.9-1,3.1-.3,11.8,3.6,23.2,7.9,34.8,12.2,8.3,3.1,15.8,7.5,23.1,12,7.8,4.8,14.3,11.9,20.2,19.2Z"/>
            <path class="cls-3" d="m422.3,100.05c-6.7-1.6-12.8-5.2-19.7-6.4,7.5-.9,14.4.2,19.7,6.4Z"/>
            <path class="cls-2" d="m409.1,129.05c-3.6,3.8-5.4,8.4-9.8,12.5,1.2-4.2.6-7.3.5-10.5-.1-3.3,0-6.6,0-10.1,8,2.9,13,10,21.7,10.1-1.6,4-2.3,8-6.3,9.9-1.8-1.2-.1-3.1-1.5-4.1-1.7-.3-2,2.2-4.2,1.9-.1-3.1-.3-6.4-.4-9.7Z"/>
            <path class="cls-3" d="m395.6,185.55c6.9-2,13.3-4,20.3-6-1.9,7.4-9.6,7.2-12.4,12.9-1.3-2.7,3.1-4.9-1-6.5-2.2-.9-4.3,2.4-6.9-.4Z"/>
            <path class="cls-2" d="m397.1,119.95c.4,3.6,1,7.4-.4,10.8-1.2,3-3.3,5.6-5.1,8.3-.6.9-1.2,2.3-2.7,1.8-1.1-.4-1.4-1.5-1.7-2.7-1.7-7.5-1.9-15.1-3.6-22.9l1.24-2.44c2.42,1.24,4.84,2.49,7.26,3.74,1.8.9,4.7,1.1,5,3.4Z"/>
            <path class="cls-3" d="m383.3,63.05c2.7,2.2,5.2,4.6,8.3,8.1-4.7-.7-7.1-3.4-9.8-5.3-15-9.9-30.4-19-47.4-25.2-8.2-3-15.5-.3-23.1,1-4.2.7-8.3,2.1-12.4,3.1-1.1.3-2.2.7-3.4-.8,4.2-1.9,2.7-3.1-.3-4.6-8.8-4.5-18.1-6.8-28-7.3-2.4-.1-4.6-.3-6.6-2.7,8.2-2.4,16.2-2.1,24.1-1,9,1.2,17.7,3.5,26,7.3,1.7.8,3.6.6,5.4.1,12.3-3.9,23.2-1.1,34.1,5.4,11.4,6.8,22.8,13.5,33.1,21.9Z"/>
            <path class="cls-2" d="m384.84,112.81l-1.24,2.44c-5.6,12.4-10.7,25-20.4,35.9-5.4-16.6-8.5-33.3-7.9-51,4.2-1.2,7.8,2.3,11.7,4,6.02,2.69,11.95,5.64,17.84,8.66Z"/>
            <path class="cls-3" d="m400.2,176.25c-8.7,3-17.4,7.4-26.9,1.8,9.2,2.7,17.9-.7,26.9-1.8Z"/>
            <path class="cls-3" d="m379.1,228.45c.8-.2,1.6-.2,2.5.2-5.8,2.4-11.6,4.8-17.3,7.4-.3-2-.1-3.6,2.3-4.2,4.2-1.1,8.3-2.3,12.5-3.4Z"/>
            <path class="cls-3" d="m358.9,234.35c5.2,9.8,9.7,19.9,11.9,30.9-2.4-5.3-4.8-10.5-7.1-15.8-4.1-9.4-10.3-16.1-21.1-17.3-1.8-.2-3.5-.9-5.2-1.7,7-.3,13.7,1.5,20.4,2.9.4.1.8.6,1.1,1Z"/>
            <path class="cls-3" d="m364.5,75.05h-.08s-.02-.06-.02-.1l.1.1Z"/>
            <path class="cls-1" d="m364.4,74.95c-3.2.1-5.5-2-8.2-3.2-8.2-3.6-16.6-6.6-25.3-8.8-.54-.14-1.38.05-1.69-.39h0c-.08-.22-.07-.53.09-1.01h-.12s.01-.07.02-.1c14.7-3.2,26,2.3,35.2,13.5Z"/>
            <path class="cls-2" d="m361.3,163.15c.1,3.4-1.6,4.6-4.4,3.5-6.5-2.6-12.7-6.2-19.7-7.8-1.9-.4-1.2-2.9-.7-3.9,2.7-5.8,4.2-12.1,8.1-17.4,2-2.8,3.3-2.5,4.9.2,4.3,7.3,8.5,14.6,11,22.8.3,1,.8,1.8.8,2.6Z"/>
            <path class="cls-3" d="m376.5,83.55c-25.6-11.9-52.1-19.9-79.8-24.2,4.3,0,8.6-.2,12.9.1,4.4.3,8.9,1,13.3,1.9,2.16.49,4.13.21,6.28.2-.13.5-.1.81.03,1h0c.25.58,1.21.35,1.79.5,8.7,2.2,17.1,5.1,25.3,8.8,2.68,1.19,4.96,3.26,8.12,3.2.13.8.81.81,1.48,1,3.5,2.5,7.1,5,10.6,7.5Z"/>
            <path class="cls-2" d="m352.2,99.05c.9,8.2,2.6,16.8-4.7,23.8-4.9-7.9-8-16.4-10.8-25.1-.9-2.7.3-4.1,2.8-3.6,3.8.7,7.5,1.9,11.2,3.1.7.2,1.5,1.1,1.5,1.8Z"/>
            <path class="cls-2" d="m333.4,98.45c2.2,2.2,4.2,5.9,3.1,10.4-1.3,5.1-2.9,10.1-4.9,15.5-4.4-4.2-5.5-9.6-8-14.1-1-1.7-1.2-4.6,1.6-6,.7-.3,1.2-1,1.9-1.5,2.2-1.6,4.6-6.1,6.3-4.3Z"/>
            <path class="cls-2" d="m335.1,149.95c1.5,4.4-2,8.6-6.7,8.9-2.2.3-4.3,1.9-6.4,1.1-1.3,0-2.4-.3-3.2,0-5.5,2.5-5.9.6-4.4-4.3,2.5-7.9,4.6-16,8.8-23.3,1.6-2.7,2.2-3.1,4.1-.2,3.7,5.5,5.7,11.7,7.8,17.8Z"/>
            <path class="cls-1" d="m329.18,61.55h.12c-.16.48-.17.79-.09,1-.13-.19-.16-.5-.03-1Z"/>
            <path class="cls-2" d="m313.9,143.25c1.8,5.8-2,10.9-3,16.4-4.2-.2-8.2,2.3-12.5,1-1.2-.4-2.4-1-3.5-1.7-4.6-2.9-5.4-5.9-3-10.7,3.9-8,8.9-15.2,14.4-22.7,3.8,5.7,5.8,11.7,7.6,17.7Z"/>
            <path class="cls-3" d="m310.6,94.55c-.8-1.2-3-.5-4.6.1-1.7.6-3.5,1-5.1-.9,4.3-2.5,9.3-1.2,13.7-2.7,1-.3,2.5-.3,3.1,1,.6,1.2-.7,1.7-1.2,2.4-2.8,4-5.4,8.2-7.4,14.2,7.6-5.9,11.7-14.2,20.7-16.3-15,14.9-29.4,30-39.9,48.4,5.3-14.5,11.1-28.5,19-41.5.9-1.5,2.8-3.2,1.7-4.7Z"/>
            <path class="cls-3" d="m289.1,157.25c1.1,1.7,2.8,3.2,4.2,4.7-3.1.4-4.6-1.9-5.8-3.9-3.5-5.6-5-11.8-3.9-18.6,3.6,3.1,4.8,6.5,3.4,10-1.3,3.2.6,5.5,2.1,7.8Z"/>
            <path class="cls-3" d="m264.5,83.65c-3.9,41.8-4.8,82.2,8.5,121.7-12-23.2-16.1-48.2-15.6-74.1-.6,0-1.3.1-1.9.1,0,9-.4,18.1.1,27.2s1.9,18.2,2.6,27.4c-10.3-21.7-8-82.4,6.3-102.3Z"/>
            <path class="cls-2" d="m258.4,70.55c1,1.8.8,3.1.1,5.1-4.4,11.8-7.8,23.9-10.4,36.2-2.7,12.9-3,25.7-3,38.7s2.8,24.8,7.6,36.4c.6,1.3.6,2.5,0,4.8-5.3-6.4-11.5-11.2-16-18.4,4.7-.1,4.2-1.7,2.7-5-6.5-14.7-8.4-30.4-7.3-46.4.3-.1.5-.2.8-.3-.1-.2-.4-.4-.6-.6-.9-17.5,4.8-33.5,10.6-49.6-.8-.9-2-.1-3-.4-1.6-.4-3-.8-1.1-2.8,3.3-3.5,6.5-7,9.8-10.6,1.9-2.1,3.5-2,4.4.9,1.3,4.2,3.2,8.2,5.4,12Z"/>
            <path class="cls-3" d="m252.2,567.15c.5,10.9-3.2,20-11.7,27-.1-.1-.2-.3-.3-.4,2.2-5.2,5-10,6.6-15.5,2.2-7.4,2.3-7.3-5.2-6.6,2.4-3.2,5.8-4.4,8.7-6.2,1.7-1.1,1.9.5,1.9,1.7Z"/>
            <path class="cls-3" d="m231.2,529.25c8.7,2.5,17.4,2.2,26.4.7-6.3,6.8-18.2,6.5-26.4-.7Z"/>
            <path class="cls-2" d="m238.8,341.35c-8,1.5-18.3-3-26.8-11.3-7.1-6.9-11-14.7-7.8-25.7,4.9,8.6,8,17.6,14.9,24.9.1-4.3,1.5-3.6,3.5-1.4,4.8,5.2,10,9.9,16.2,13.5Z"/>
            <path class="cls-3" d="m222,283.05c12.6,13.6,29.2,15.7,44.8,20,2.6.7,5.8.8,5.5,5-.2,2.3-1.1,3.1-3.1,2.6-16.7-4.5-33.6-8.7-45.5-23-.8-.9-1.6-1.9-1.7-4.6Z"/>
            <path class="cls-2" d="m225.3,199.35c-18.6-1.2-36.5.8-53.6,9.4,1.7,2.1,3.6.7,5.1,1.6-3.6,2.6-7.8,4-11.2,6.8-9.4,7.6-16,17.2-21.8,27.6-.7,1.2-1,3.6-2.7,3-1.9-.7-.5-2.6-.2-4.1,2-10.4,7.7-18.8,13.9-27.7h-7c9.7-9.4,21.5-13.7,33.5-19.6-4.8-.8-8.9.7-11.7-3,26-3.1,44.5.4,55.7,6Z"/>
            <path class="cls-3" d="m224.9,556.15c-17.9,5.3-22,.9-25.8-9.1,7.3,6.5,16.2,8.2,25.8,9.1Z"/>
            <path class="cls-3" d="m208.5,250.85c-.4.4-.7.7-1.1,1-2.2-6.4-5.9-10.6-13.4-9.2,3.2-2.5,6.8-2.6,10.1-3.9,1.5-.6,2.1.1,2.3,1.5.7,3.6,1.4,7.1,2.1,10.6Z"/>
            <path class="cls-2" d="m193.4,632.85c.2-.7-.6-.9-1.1-1,.01-.03.01-.05.02-.08.03-.01.05-.01.08-.02.6.2,1.3.3,1.2,1.1-.2,1.2-1.6.7-2.2,1.2-.06-.01-.13-.01-.19-.01.7-.49,1.99,0,2.19-1.19Z"/>
            <path class="cls-3" d="m191.21,634.04c.06,0,.13,0,.19.01.6-.5,2,0,2.2-1.2.1-.8-.6-.9-1.2-1.1-.03.01-.05.01-.08.02.3-1.07.78-2.15.88-3.22.4-3,2-3.1,4.2-1.8,4.5,2.6,7.5,9.8,6.4,15-.3,1.6-.7,3.4-.3,4.9.49,1.87.79,3.71.92,5.5.46,6.64-1.51,12.75-5.52,18.5-1.7,2.4-1.3,4.1.6,6.5,1.05,1.26,1.91,2.45,2.59,3.59,5.81,9.65-1.08,14.8-9.49,17.31-19,5.6-38.2,6.8-57.1-.8-9.1-3.7-9.7-9.2-2.1-15.8,2.3-2,5.6-3.1,6.3-6.7,2.5,2.2,5.8,2.9,8.6,3.1,11,.8,22.1.9,33.2,1.3.8,0,2.1.5,2.3-1.2,0,0,0,0,0,0,0-.03,0-.06,0-.09-3.26-2.07-7.59-2-11.45-4.89,4.83.38,8.8-.33,14.05-1.81-.05-.02-.09-.04-.14-.06.05-.01.09-.03.14-.04-4.33-1.87-7.4-3.16-11.02-4.72,3.72-.39,6.78-.8,10.32-2.28-.03-.02-.07-.04-.1-.06.03-.01.07-.03.1-.04-3.77-2.38-6.85-4.37-10.22-6.55,3.48-2.13,7.45-.67,10.82-2.85-.02-.02-.04-.05-.05-.07.02-.01.03-.02.05-.03-1.77-2.36-4.21-3.55-6.66-4.74l.06-.06c-.39-1.28-2.35-1.11-2.4-2.93,4.03-.59,7.97-1.28,12-1.77.83-.08,1.35-.25,1.59-.53.59-.41.42-1.06-.39-2.07-.08-.01-.15-.02-.23-.04-.43-1.75.21-3.39.64-5.04.14-.51.26-1.02.31-1.54.02-.13.03-.26.04-.39s.02-.26.01-.39c0-.12,0-.24-.02-.36,0-.18-.02-.36-.05-.54,0,0,.01,0,.01-.01Z"/>
            <path class="cls-4" d="m191.22,635.73c.02-.13.03-.26.04-.39,0,.13-.02.26-.04.39Z"/>
            <path class="cls-4" d="m190.91,637.27c.14-.51.25-1.02.31-1.54-.05.52-.17,1.03-.31,1.54Z"/>
            <path class="cls-2" d="m190.3,642.45s-.03-.09-.03-.14c.08.02.15.03.23.04.81,1.01.98,1.66.39,2.07.39-.41.14-1.06-.59-1.97Z"/>
            <path class="cls-4" d="m187.16,641c.77-1.95,1.34-4,1.14-6.15.05-.04.09-.07.14-.1h.06c.08-.07.16-.13.24-.19.04-.02.07-.04.1-.06.76-.38,1.56-.43,2.36-.35.03.15.04.29.05.44.02.12.02.24.02.36.01.13,0,.26-.01.39s-.02.26-.04.39c-.06.52-.17,1.03-.31,1.54-.43,1.65-1.07,3.29-.64,5.04-1.12-.16-2.22-.23-2.97-1.26-.05-.02-.09-.04-.14-.05Z"/>
            <path class="cls-3" d="m179.5,612.95c8,0,11.2,4,10.1,12.1-.29,2.34-.11,4.86-.2,7.3-9.4,2.3-18.7,4-27.6-1.5-.2-.1-.3-.1-.5-.1,1.4-2.8,1-5.8,1.1-8.8,0-5.8,2.7-8.7,8.6-9,2.8-.2,5.6,0,8.5,0Z"/>
            <path class="cls-4" d="m190.3,642.45c-1.1-.3-2.4-.2-3.2-1.3l.06-.15c.05.01.09.03.14.05.75,1.03,1.85,1.1,2.97,1.26,0,.05.02.09.03.14Z"/>
            <path class="cls-4" d="m188.74,634.56c-.08.06-.16.12-.24.19h-.06c.1-.07.2-.14.3-.19Z"/>
            <path class="cls-3" d="m188.3,634.85c.2,2.15-.37,4.2-1.14,6.15-3.14-1.18-6.3-2.37-10.61-4.03.79-.25,1.55-.48,2.28-.68.35-.09.68-.18,1.01-.27,3.08-.79,5.74-1.17,8.46-1.17Z"/>
            <path class="cls-3" d="m187.16,641l-.06.15c-3.2-1.2-6.4-2.4-10.8-4.1.08-.03.17-.05.25-.08,4.31,1.66,7.47,2.85,10.61,4.03Z"/>
            <path class="cls-3" d="m185.9,643.25c-8.3,3-15.5,2.5-21.4-4.2,6.4-2.4,11-1.5,21.4,4.2Z"/>
            <path class="cls-3" d="m182.4,653.55l-.33.09c-1.44-1.14-2.5-1.92-3.57-2.79.06-.08.12-.15.18-.22.01.01.01.02.02.02,1.1.9,2.2,1.7,3.7,2.9Z"/>
            <path class="cls-2" d="m186.25,654.48c-1.78-2.33-4.23-3.52-6.68-4.7l.07-.07c2.45,1.19,4.89,2.38,6.66,4.74-.02.01-.03.02-.05.03Z"/>
            <path class="cls-2" d="m179.64,649.71l-.07.07s-.05-.02-.07-.03c-.01-.02-.01-.04-.03-.06.01-.01.02-.03.03-.04.05.02.09.04.14.06Z"/>
            <path class="cls-2" d="m179.57,649.78l-.77.77s-.02-.01-.03-.02c.26-.31.48-.55.7-.84.02.02.02.04.03.06.02.01.05.02.07.03Z"/>
            <path class="cls-2" d="m186.26,671.09c-4.33-1.87-7.4-3.16-11.06-4.74.06-.01.12-.01.18-.02,3.62,1.56,6.69,2.85,11.02,4.72-.05.01-.09.03-.14.04Z"/>
            <path class="cls-2" d="m185.6,663.99c-3.76-2.38-6.83-4.36-10.2-6.54.03-.02.05-.03.08-.05,3.37,2.18,6.45,4.17,10.22,6.55-.03.01-.07.03-.1.04Z"/>
            <path class="cls-3" d="m178.8,662.55c0,1.28-.76,1.71-1.84,1.78,1.04-.09,1.8-.53,1.84-1.78Z"/>
            <path class="cls-2" d="m179.47,649.69c-.44-1.14-2.47-1.07-2.37-2.94.07-.01.13-.02.2-.03.05,1.82,2.01,1.65,2.4,2.93l-.06.06c-.05-.02-.09-.04-.14-.06-.01.01-.02.03-.03.04Z"/>
            <path class="cls-3" d="m177.5,669.95c-1.88.76-3.7,1.25-5.47,1.49-4.33.59-8.38-.25-12.34-1.84-1.41-.56-2.8-1.22-4.19-1.95,12.5-1.1,15.1-2.9,22,2.3Z"/>
            <path class="cls-3" d="m175.3,343.75c1,19.1-9,32.7-23.2,45.7,2-6.2,6.4-8.9,9.2-12.8,8.8-12.1,13.4-25,10.4-40.1-.2-1.2-.2-2.3.8-3.1,3.6-3.1,7.3-6.2,11.6-9.9-.9,5.2-3.2,8.8-5.9,11.7-2.4,2.6-3,5.2-2.9,8.5Z"/>
            <path class="cls-3" d="m170.9,657.85c2.63.3,5.77,1.45,7.16,3.02-1.4-1.54-4.54-2.64-7.16-3.02Z"/>
            <path class="cls-2" d="m172.35,672.96c3.86,2.89,8.19,2.82,11.45,4.89,0,.03,0,.06,0,.09-3.3-2.09-7.69-1.99-11.59-4.99.05,0,.1.01.15.01Z"/>
            <path class="cls-3" d="m172.59,675.76c.37.17.73.36,1.1.56-.37-.2-.74-.39-1.1-.56Z"/>
            <path class="cls-3" d="m150.9,675.43c7.18-.65,14.2-3.2,21.67.32-7.4-3.43-14.42-.95-21.67-.32Z"/>
            <path class="cls-3" d="m161.42,649.84c5.89-2.99,11.67-3.09,17.26.79-.06.07-.12.14-.18.22,1.07.87,2.13,1.65,3.57,2.79-5.86,1.64-10.96,2.43-15.77-1.69-1.4-1.1-2.89-2.4-4.89-2.1h.01Z"/>
            <path class="cls-3" d="m168.68,663.7c-.25-.05-.49-.12-.73-.2.24.07.49.14.73.2Z"/>
            <path class="cls-3" d="m160.4,639.75c3.5,1.1,6.1,3.5,9.4,5.5-.65.36-1.29.62-1.94.83-.19.06-.38.11-.56.15-.24.07-.47.12-.71.17-.23.04-.45.08-.68.12s-.46.07-.68.1c-2.04.26-4.03.3-5.83,1.03h-.19c.4-2.66.79-5.23,1.19-7.9Z"/>
            <path class="cls-3" d="m167.3,646.23c.18-.04.37-.09.56-.15-.19.06-.37.11-.56.15Z"/>
            <path class="cls-3" d="m165.91,646.52c.23-.04.45-.08.68-.12-.23.05-.45.09-.68.12Z"/>
            <path class="cls-3" d="m165.4,248.15h.1c-5.8,4.8-12.4,8.4-19,11.8-16.4,8.3-20.5,23.4-23.1,39.5-.5,3,1.8,3.6,3.7,4.5,6.2,3,11.7,6.8,15.4,12.9l-.3.3c-5.2-3.2-10.6-6.1-15.7-9.5-3.6-2.4-7.1-4.2-11.5-2.6-1.1.4-2.3.5-3.4.5-3.45.05-6.44.58-9.02,1.54l-.65-1.78c4.14-1.56,8.33-2.88,12.67-3.76,3.6-.7,5-2.5,5.5-5.8,1-5.7,3-11.2,4.8-16.7,3.4-10.9,10.9-18,20.8-22.8,6.4-3.1,12.6-6.6,19.7-8.1Z"/>
            <path class="cls-3" d="m165.23,646.62c-2.08.28-4.12.32-6.03,1.13,0-.03.01-.07.01-.1h.19c1.8-.73,3.79-.77,5.83-1.03Z"/>
            <path class="cls-3" d="m159.95,659.76c2.75,1.21,5.27,2.92,8,3.74-2.75-.81-5.31-2.52-8-3.74Z"/>
            <path class="cls-3" d="m168.24,655.51c-2.77-1.88-5.06-3.37-7.44-4.86.06-.06.11-.11.15-.17,2.28,1.49,4.57,3.08,7.45,4.97-.05.02-.11.04-.16.06Z"/>
            <path class="cls-3" d="m150.9,675.43c7.25-.63,14.27-3.11,21.67.32.01,0,.02,0,.02.01.36.17.73.36,1.1.56.3.16.61.34.91.53-5.2,0-9.4.2-13.5,0-4-.2-8.1-.9-12.1-1.3.63-.02,1.26-.06,1.9-.12Z"/>
            <path class="cls-3" d="m163.9,663.95c-.05.01-.11.02-.16.03-3.74-1.68-7.48-3.45-11.22-5.12,0-.01,0-.02-.01-.04.01-.02.02-.04.03-.05,3.79,1.69,7.57,3.49,11.36,5.18Z"/>
            <path class="cls-3" d="m168.06,635.49c-2.23,2.09-4.54,1.16-6.66,1.26-.04.01-.07.03-.1.04l.3-4.14c2.1.8,4.1,1.7,6.6,2.7-.05.05-.09.1-.14.14Z"/>
            <path class="cls-3" d="m161.4,636.75c2.12-.1,4.43.83,6.66-1.26-2.16,2.22-4.61,1.26-6.76,1.36v-.06s.06-.03.1-.04Z"/>
            <path class="cls-2" d="m161.8,631.05c-.2-.2-.4-.3-.5-.3.2,0,.3,0,.5.1,8.9,5.5,18.2,3.8,27.6,1.5v.2c-9.4,2.3-18.7,4-27.6-1.5Z"/>
            <path class="cls-2" d="m185.9,643.25c-10.4-5.7-15-6.6-21.4-4.2,5.9,6.7,13.1,7.2,21.4,4.2Zm-24.2-10.7c-.3-.6-2.3-.9-.4-1.8.1,0,.3.1.5.3,8.9,5.5,18.2,3.8,27.6,1.5v-.2c.97-.19,1.95-.39,2.92-.58-.01.03-.01.05-.02.08.5.1,1.3.3,1.1,1-.2,1.19-1.49.7-2.19,1.19-.88-.07-1.68.02-2.37.46-.03.02-.06.04-.1.06-.1.05-.2.12-.3.19-2.75.01-5.46.46-8.6,1.27-.33.09-.66.18-1.01.27-.75.2-1.52.42-2.33.66.02.01.03.01.05.02-.08.03-.17.05-.25.08,4.4,1.7,7.6,2.9,10.8,4.1.8,1.1,2.1,1,3.2,1.3.73.91.98,1.56.59,1.97-.28.19-.74.33-1.39.43-4.1.5-8.1,1.2-12.2,1.8v.07c-.07.01-.13.02-.2.03-.1,1.87,1.93,1.8,2.37,2.94-.22.29-.44.53-.7.84-5.59-3.78-11.38-3.77-17.27-.78-.03.03-.06.06-.08.09h-.01c-.15.18-.24.34-.41.51-.8-.2-1.5-.4-2.2-.6-.88-.98-2.04-2.05.41-2.1,0,.03-.01.07-.01.1,1.91-.81,3.95-.85,6.03-1.13.22-.03.45-.06.68-.1.23-.03.45-.07.68-.12.24-.05.47-.1.71-.17.19-.04.37-.09.56-.15.65-.2,1.3-.46,1.94-.83.07-.02.13-.06.2-.1-3.2-2-5.9-4.4-9.4-5.5-1.37-1.47-.83-2.26.7-2.86v.06c2.15-.1,4.6.86,6.76-1.36.05-.04.09-.09.14-.14.03-.03.07-.06.1-.1-2.5-1-4.5-1.8-6.6-2.7Z"/>
            <path class="cls-3" d="m155.6,657.25c.1-2.9,1.4-5.3,3.1-7.4.8.2,1.5.4,2.2.6.02.01.03.02.05.03-.04.06-.09.11-.15.17,2.38,1.49,4.67,2.98,7.44,4.86-4.44,1.74-8.59,1.54-12.64,1.74Z"/>
            <path class="cls-3" d="m159.2,659.45c.66-.03,1.32-.11,1.96-.22,1.72-.29,3.39-.78,5.1-1.11,1.5-.29,3.03-.47,4.64-.27,2.62.38,5.76,1.48,7.16,3.02.47.52.74,1.08.74,1.68-.04,1.25-.8,1.69-1.84,1.78-.28.02-.59.02-.91,0-.89-.06-1.88-.23-2.8-.33-.52-.06-1.01-.08-1.45-.05-1.08.09-2.11,0-3.12-.25-.24-.06-.49-.13-.73-.2-2.73-.82-5.25-2.53-8-3.74-.25-.1-.5-.21-.75-.31Z"/>
            <path class="cls-3" d="m159.2,671.05v.1c-3.61-1-7.2-2.1-10.8-3.2-.01-.03-.02-.06-.02-.09.01,0,.01-.01.02-.01,3.6,1,7.2,2.1,10.8,3.2Z"/>
            <path class="cls-3" d="m159.19,671.15l-.09,1.2c-5.3.5-10.5.9-15.8,1.4,1-2.49,2.29-4.79,5.08-5.89,0,.03.01.06.02.09,3.6,1.1,7.19,2.2,10.79,3.2Z"/>
            <path class="cls-3" d="m154.9,329.35c1.6.3,2.8,1.4,2.2,3.3-1.3,4.1-2.6,8.1-5.5,11.3.6-4.1,1.2-8.1,1.8-12.2.1-1-.5-2.7,1.5-2.4Z"/>
            <path class="cls-3" d="m149,675.55c4,.4,8.1,1.1,12.1,1.3-4-.2-8-.8-12.1-1.3Z"/>
            <path class="cls-3" d="m152.52,658.86c3.74,1.67,7.48,3.44,11.22,5.12-4.64.82-8.89,2.85-13.54,1.47-.2-2.56,2.91-3.96,2.32-6.59Z"/>
            <path class="cls-3" d="m152.54,658.77s-.02.03-.03.05c0-.02,0-.05,0-.07,0,.01.03.01.04.02Z"/>
            <path class="cls-2" d="m152.51,658.82s.01.03.01.04c-.01,0-.01-.01-.02-.01,0-.01,0-.02,0-.03Z"/>
            <path class="cls-2" d="m161.16,659.23c-.64.11-1.3.19-1.96.22.25.1.5.21.75.31,2.69,1.22,5.25,2.93,8,3.74.24.08.48.15.73.2,1.01.24,2.04.34,3.12.25.44-.03.93,0,1.45.05.91.1,1.9.28,2.8.33.32.02.63.02.91,0,1.08-.07,1.84-.5,1.84-1.78,0-.6-.27-1.16-.74-1.68-1.39-1.57-4.53-2.72-7.16-3.02-1.61-.2-3.14-.02-4.64.27-1.72.33-3.4.81-5.1,1.11Zm-10.96,6.32c4.7,1.4,9.1-.8,13.7-1.5-.05-.02-.11-.05-.16-.07.05-.01.11-.02.16-.03-3.79-1.69-7.57-3.49-11.36-5.18.53-1.28,2.27-.44,2.96-1.42,4.1-.2,8.3,0,12.8-1.8-.02-.01-.04-.03-.06-.04.05-.02.11-.04.16-.06-2.88-1.89-5.17-3.48-7.45-4.97.11-.14.21-.29.35-.43,2-.2,3.5,1,4.8,2.1,4.9,4.2,10.2,3.3,16.1,1.6-.05-.04-.09-.07-.13-.11l.33-.09c-1.5-1.2-2.6-2-3.7-2.9-.01,0-.01-.01-.02-.02.03-.04.06-.07.09-.1.01,0,.02,0,.03.02l.77-.77c2.45,1.18,4.9,2.37,6.68,4.7-3.29,2.15-7.37.68-10.85,2.87.03.02.05.03.08.05-.03.02-.05.03-.08.05,3.37,2.18,6.44,4.16,10.2,6.54-3.56,1.47-6.64,1.76-10.4,2.26.06.03.12.05.18.08-.06.01-.12.01-.18.02,3.66,1.58,6.73,2.87,11.06,4.74-5.23,1.47-9.2,2.16-14.06,1.76l-.17-1.41c1.77-.24,3.59-.73,5.47-1.49-6.9-5.2-9.5-3.4-22-2.3,1.39.73,2.78,1.39,4.19,1.95l-.49,1.45c-3.6-1.1-7.2-2.2-10.8-3.2-.01,0-.01.01-.02.01-.34-1.53.55-2.02,1.82-2.31Z"/>
            <path class="cls-2" d="m181.5,679.05c-11.1-.3-22.1-.5-33.2-1.3-2.9-.2-6.1-1-8.6-3.1,1-1.3,2.4-.6,3.6-.8,5.3-.5,10.5-.9,15.8-1.4l.1-1.3h-.01v-.1s.5-1.45.5-1.45c3.96,1.59,8.01,2.43,12.34,1.84l.17,1.41c.05.04.1.08.15.11-.05,0-.1-.01-.15-.01,3.9,3,8.29,2.9,11.59,4.99-.24,1.59-1.5,1.11-2.29,1.11Zm-32.5-3.5c4.1.5,8.1,1.1,12.1,1.3,4.1.2,8.3,0,13.5,0-.3-.19-.61-.37-.91-.53-.37-.2-.73-.39-1.1-.56,0-.01,0-.01-.02-.01-7.47-3.52-14.49-.97-21.67-.32-.64.06-1.27.1-1.9.12Z"/>
            <path class="cls-3" d="m98.9,380.05c-2.2,1.5-3.6,2.7-.3,5,2.8,1.9,5.4,4.3,5.6,9-4.6-4.2-7.8-9.1-14-10,.1-.4.3-.9.4-1.4,5.5-3.4,10.9-6.7,16.4-10.1.3.4.5.8.8,1.2-3,2.1-5.9,4.2-8.9,6.3Z"/>
            <path class="cls-3" d="m96.8,406.35c1.8.2,3.6.6,6.6,1.1-3.2.7-5.1.9-7,1.5-4.7,1.5-8.5,2.6-7.9,9.7.3,3.8-.9,8.6-1.3,12.9-.1,1.4-1.1,2.6-2.4,2.7-.7,0-1.5-1.1-2.1-1.9-.9-1.3-.8-2,.9-2.8,1.4-.7,2.1-2.7,1.8-4.4-.8-4.5,1.2-8.8,1-13.3-.1-3.7,4.8-6.1,10.4-5.5Z"/>
            <path class="cls-3" d="m97.5,307.05c1.48-.61,2.95-1.19,4.43-1.74l.65,1.78c-7.76,2.87-11.88,9.66-13.98,19.26-2,9.1-5.3,17.8-8,26.7-.4,1.4-.7,2.8-2,3.8-2-1.5-1.1-3.1-.6-4.6,3.8-12.2,7.8-24.4,11.4-36.6,1.3-4.4,4-7,8.1-8.6Z"/>
            <path class="cls-3" d="m63.7,341.25c9.4,7.4,13.2,17.4,13.7,30.2-2.9-3.4-3.9-6-4.9-8.8-3.3-9.1-8.6-16.6-17.3-21.3-1.1-.6-3.1-1-2.4-2.6.6-1.5,2.6-2,4.3-1.7,2.7.5,4.6,2.6,6.6,4.2Z"/>
            <path class="cls-3" d="m76.3,406.35c-.1,7.7-3.3,14.2-9.5,18.9,1.4-2.8,2.7-5.7,4.1-8.4,3.3-6.5,4.7-12.7-4-17.2,5.3.1,9.4,3.1,9.4,6.7Z"/>
            <path class="cls-3" d="m48.8,310.25c3.8.8,6.9,3.5,7.7,9.1-9.1-9-19.1-9-29.6-5.5,6.5-7.1,14.4-5.1,21.9-3.6Z"/>
            <path class="cls-3" d="m42.3,373.65c7.7.5,12.3,6.3,11.2,13.4-.2,1.3-.9,2.2-1.9,2.8-4.3,2.8-8.6,5.6-12.9,8.4l-.5-.5c1.6-3.3,4.3-5.5,7-7.6,6-4.8,6.1-8.6.3-13.7-1-.8-2-1.7-3.2-2.8Z"/>
          </g>
        </g>
      </g>
    </g>
  </g>
</svg>